<svg width="25" height="24" viewBox="0 0 25 24" fill="none" xmlns="http://www.w3.org/2000/svg">
<path d="M12.5 0.5C18.8513 0.5 24 5.64872 24 12C24 18.3512 18.8513 23.5 12.5 23.5C6.14878 23.5 1 18.3512 1 12C1 5.64872 6.14878 0.5 12.5 0.5Z" stroke="black" stroke-linecap="round" stroke-linejoin="round"/>
<path d="M21.3879 19.2976C21.3879 19.2976 18.8246 16.025 12.4996 16.025C6.17459 16.025 3.61113 19.2976 3.61113 19.2976" stroke="black" stroke-linecap="round" stroke-linejoin="round"/>
<path d="M12.4997 12C10.5943 12 9.04971 10.4554 9.04971 8.54998C9.04971 6.6446 10.5943 5.09998 12.4997 5.09998C14.4051 5.09998 15.9497 6.6446 15.9497 8.54998C15.9497 10.4554 14.4051 12 12.4997 12Z" stroke="black" stroke-linecap="round" stroke-linejoin="round"/>
</svg>
