<svg width="17" height="16" viewBox="0 0 17 16" fill="none" xmlns="http://www.w3.org/2000/svg">
<path d="M8.11133 0C9.17219 0 10.1896 0.421427 10.9398 1.17157C11.6899 1.92172 12.1113 2.93913 12.1113 4C12.1113 5.06087 11.6899 6.07828 10.9398 6.82843C10.1896 7.57857 9.17219 8 8.11133 8C7.05046 8 6.03305 7.57857 5.2829 6.82843C4.53276 6.07828 4.11133 5.06087 4.11133 4C4.11133 2.93913 4.53276 1.92172 5.2829 1.17157C6.03305 0.421427 7.05046 0 8.11133 0ZM8.11133 10C12.5313 10 16.1113 11.79 16.1113 14V16H0.111328V14C0.111328 11.79 3.69133 10 8.11133 10Z" fill="black"/>
</svg>
