<svg width="93" height="96" viewBox="0 0 93 96" fill="none" xmlns="http://www.w3.org/2000/svg">
<path d="M75.6038 92.2141H17.6538C15.7387 92.2258 13.8428 91.8319 12.0908 91.0585C10.3388 90.2851 8.77026 89.1497 7.48838 87.7268C6.20651 86.3039 5.24031 84.6258 4.65328 82.8029C4.06624 80.9799 3.87169 79.0534 4.08239 77.1498L8.62881 37.182C8.81332 35.5146 9.60891 33.9747 10.862 32.8594C12.1152 31.7441 13.737 31.1325 15.4145 31.1427H77.8431C79.5206 31.1325 81.1425 31.7441 82.3956 32.8594C83.6487 33.9747 84.4443 35.5146 84.6288 37.182L89.0395 77.1498C89.249 79.042 89.058 80.957 88.479 82.7705C87.9 84.584 86.9459 86.2554 85.6788 87.6762C84.4116 89.0969 82.8598 90.2351 81.124 91.0169C79.3883 91.7987 77.5075 92.2066 75.6038 92.2141Z" stroke="#FFBF06" stroke-width="6.78571" stroke-linecap="round" stroke-linejoin="round"/>
<path d="M19.4863 31.1429C19.4863 23.9441 22.346 17.0402 27.4363 11.95C32.5266 6.85969 39.4305 4 46.6292 4C53.8279 4 60.7318 6.85969 65.8221 11.95C70.9124 17.0402 73.772 23.9441 73.772 31.1429M29.6649 51.5H63.5935" stroke="#FFBF06" stroke-width="6.78571" stroke-linecap="round" stroke-linejoin="round"/>
</svg>
