<svg width="22" height="22" viewBox="0 0 22 22" fill="none" xmlns="http://www.w3.org/2000/svg">
<path d="M8.99526 16.821C10.2489 16.821 11.2652 17.8373 11.2652 19.091C11.2652 20.3447 10.2489 21.361 8.99524 21.361C7.74153 21.361 6.7252 20.3447 6.7252 19.091C6.7252 17.8373 7.74151 16.821 8.99522 16.821L8.99526 16.821ZM8.99526 20.4191C9.72872 20.4191 10.3233 19.8245 10.3233 19.091C10.3233 18.3575 9.72872 17.7629 8.99522 17.7629C8.26175 17.7629 7.66715 18.3575 7.66715 19.091C7.66715 19.8245 8.26175 20.4191 8.99526 20.4191ZM17.0863 16.821C18.3399 16.821 19.3563 17.8373 19.3563 19.091C19.3563 20.3447 18.34 21.361 17.0863 21.361C15.8326 21.361 14.8162 20.3447 14.8162 19.091C14.8162 17.8373 15.8326 16.821 17.0863 16.821V16.821ZM17.0863 20.4191C17.8197 20.4191 18.4144 19.8245 18.4144 19.091C18.4144 18.3575 17.8197 17.7629 17.0863 17.7629C16.3528 17.7629 15.7581 18.3575 15.7581 19.091C15.7581 19.8245 16.3528 20.4191 17.0863 20.4191ZM17.0674 17.7629H7.64828C6.14782 17.7624 4.93166 16.546 4.93166 15.0455C4.93166 13.6113 6.04275 12.4366 7.45112 12.3352L7.45988 12.3347L4.6342 3.13408C4.34057 2.22607 3.50259 1.58088 2.51388 1.58088H0V0.639018H2.5055L2.52266 0.638977C3.92959 0.638977 5.12192 1.55791 5.53221 2.82827L5.53848 2.85065L8.72773 13.27H7.64833C6.66773 13.27 5.87279 14.0649 5.87279 15.0455C5.87279 16.0261 6.66773 16.821 7.64833 16.821H17.0674L17.0674 17.7629ZM19.2404 13.27H8.091V12.3281H18.5302L20.2134 6.44116V5.17902H6.30139V4.23712H21.1553V6.57304L19.2404 13.27Z" fill="black"/>
</svg>
