<svg width="95" height="95" viewBox="0 0 95 95" fill="none" xmlns="http://www.w3.org/2000/svg">
<path d="M47.5002 49.4795C43.8258 49.4795 40.3019 50.9391 37.7038 53.5373C35.1056 56.1354 33.646 59.6593 33.646 63.3337C33.646 67.008 35.1056 70.5319 37.7038 73.13C40.3019 75.7282 43.8258 77.1878 47.5002 77.1878C51.1745 77.1878 54.6984 75.7282 57.2965 73.13C59.8947 70.5319 61.3543 67.008 61.3543 63.3337C61.3543 59.6593 59.8947 56.1354 57.2965 53.5373C54.6984 50.9391 51.1745 49.4795 47.5002 49.4795ZM41.5627 63.3337C41.5627 61.7589 42.1882 60.2487 43.3017 59.1352C44.4152 58.0217 45.9254 57.3962 47.5002 57.3962C49.0749 57.3962 50.5851 58.0217 51.6986 59.1352C52.8121 60.2487 53.4377 61.7589 53.4377 63.3337C53.4377 64.9084 52.8121 66.4186 51.6986 67.5321C50.5851 68.6456 49.0749 69.2712 47.5002 69.2712C45.9254 69.2712 44.4152 68.6456 43.3017 67.5321C42.1882 66.4186 41.5627 64.9084 41.5627 63.3337Z" fill="#FFBF06"/>
<path d="M69.3737 20.2517L56.7902 2.60938L10.5212 39.5723L7.95625 39.5446V39.5842H5.9375V87.0842H89.0625V39.5842H85.2546L77.6783 17.4215L69.3737 20.2517ZM76.8906 39.5842H37.1965L66.7612 29.5063L72.7858 27.5785L76.8906 39.5842ZM61.5521 22.9196L31.0333 33.3221L55.2029 14.0133L61.5521 22.9196ZM13.8542 71.9198V54.7406C15.5242 54.1488 17.041 53.1918 18.2942 51.9393C19.5474 50.6869 20.5052 49.1705 21.0979 47.5008H73.9021C74.4945 49.1711 75.4522 50.6881 76.7054 51.9413C77.9585 53.1944 79.4756 54.1521 81.1458 54.7446V71.9238C79.4756 72.5162 77.9585 73.4739 76.7054 74.7271C75.4522 75.9802 74.4945 77.4972 73.9021 79.1675H21.1058C20.5128 77.4958 19.554 75.9776 18.2995 74.7237C17.0449 73.4699 15.5262 72.5119 13.8542 71.9198Z" fill="#FFBF06"/>
</svg>
