<svg width="23" height="24" viewBox="0 0 23 24" fill="none" xmlns="http://www.w3.org/2000/svg">
<path d="M10.0625 18.4688H20.125V19.9062H10.0625V18.4688Z" fill="black" fill-opacity="0.7"/>
<path d="M5.15355 19.1875L3.29918 21.0419L4.31262 22.0625L7.18762 19.1875L4.31262 16.3125L3.29199 17.3259L5.15355 19.1875Z" fill="black" fill-opacity="0.7"/>
<path d="M10.0625 11.2812H20.125V12.7188H10.0625V11.2812Z" fill="black" fill-opacity="0.7"/>
<path d="M5.15355 12L3.29918 13.8544L4.31262 14.875L7.18762 12L4.31262 9.125L3.29199 10.1384L5.15355 12Z" fill="black" fill-opacity="0.7"/>
<path d="M10.0625 4.09375H20.125V5.53125H10.0625V4.09375Z" fill="black" fill-opacity="0.7"/>
<path d="M5.15355 4.8125L3.29918 6.66687L4.31262 7.6875L7.18762 4.8125L4.31262 1.9375L3.29199 2.95094L5.15355 4.8125Z" fill="black" fill-opacity="0.7"/>
</svg>
