<svg width="302" height="259" viewBox="0 0 302 259" fill="none" xmlns="http://www.w3.org/2000/svg">
<path d="M192.072 87.9305L127.293 143.615L102.378 122.248C101.024 120.892 99.3586 119.791 97.4852 119.014C95.6118 118.237 93.5713 117.8 91.4918 117.731C89.4122 117.662 87.3385 117.963 85.4008 118.614C83.4631 119.265 81.7032 120.252 80.2316 121.514C78.7601 122.776 77.6086 124.286 76.8494 125.947C76.0903 127.609 75.7399 129.388 75.8202 131.171C75.9005 132.955 76.4098 134.705 77.3162 136.311C78.2225 137.918 79.5064 139.347 81.0871 140.507L116.572 171.069C117.983 172.27 119.656 173.219 121.496 173.864C123.336 174.508 125.306 174.835 127.293 174.825C131.254 174.811 135.051 173.462 137.863 171.069L213.363 106.319C214.778 105.116 215.902 103.683 216.668 102.105C217.435 100.527 217.83 98.8345 217.83 97.125C217.83 95.4154 217.435 93.7228 216.668 92.1447C215.902 90.5666 214.778 89.1343 213.363 87.9305C210.534 85.5185 206.707 84.1647 202.718 84.1647C198.728 84.1647 194.901 85.5185 192.072 87.9305ZM151 0C121.135 0 91.9408 7.59504 67.1089 21.8247C42.2771 36.0543 22.9231 56.2794 11.4943 79.9425C0.0654259 103.605 -2.92488 129.644 2.90149 154.764C8.72786 179.885 23.1092 202.959 44.2269 221.07C65.3447 239.181 92.2503 251.515 121.541 256.512C150.833 261.508 181.194 258.944 208.785 249.142C236.377 239.341 259.96 222.742 276.552 201.446C293.144 180.15 302 155.113 302 129.5C302 112.494 298.094 95.6541 290.506 79.9425C282.917 64.2308 271.795 49.9548 257.773 37.9297C243.751 25.9045 227.105 16.3656 208.785 9.8576C190.465 3.34962 170.83 0 151 0ZM151 233.1C127.108 233.1 103.753 227.024 83.8872 215.64C64.0217 204.256 48.5385 188.076 39.3954 169.146C30.2524 150.216 27.8601 129.385 32.5212 109.289C37.1823 89.1922 48.6874 70.7324 65.5816 56.2437C82.4757 41.755 104 31.8881 127.433 27.8906C150.866 23.8932 175.155 25.9448 197.228 33.7861C219.301 41.6273 238.168 54.906 251.442 71.9429C264.715 88.9798 271.8 109.01 271.8 129.5C271.8 156.976 259.073 183.327 236.419 202.756C213.764 222.185 183.038 233.1 151 233.1Z" fill="black"/>
</svg>
