<svg width="1024" height="1024" viewBox="0 0 1024 1024" fill="none" xmlns="http://www.w3.org/2000/svg">
<g clip-path="url(#clip0_294_135)">
<path d="M512 0C229.232 0 0 229.232 0 512C0 794.784 229.232 1024 512 1024C794.784 1024 1024 794.784 1024 512C1024 229.232 794.784 0 512 0ZM512 961.008C264.976 961.008 64 759.024 64 511.998C64 264.974 264.976 63.998 512 63.998C759.024 63.998 960 264.975 960 511.998C960 759.021 759.024 961.008 512 961.008ZM716.336 324.656L415.935 626.944L280.655 491.664C268.159 479.168 247.903 479.168 235.391 491.664C222.895 504.16 222.895 524.416 235.391 536.912L393.775 695.312C406.271 707.792 426.527 707.792 439.039 695.312C440.479 693.872 441.712 692.303 442.832 690.672L761.616 369.919C774.096 357.423 774.096 337.167 761.616 324.656C749.104 312.16 728.848 312.16 716.336 324.656Z" fill="#4ECB71"/>
</g>
<defs>
<clipPath id="clip0_294_135">
<rect width="1024" height="1024" fill="white"/>
</clipPath>
</defs>
</svg>
