<svg width="95" height="95" viewBox="0 0 95 95" fill="none" xmlns="http://www.w3.org/2000/svg">
<path d="M75.209 25.7279C68.6777 25.7279 63.334 23.9466 63.334 21.7695V25.7279C63.334 27.9049 68.6777 29.6862 75.209 29.6862C81.7402 29.6862 87.084 27.9049 87.084 25.7279V21.7695C87.084 23.9466 81.7402 25.7279 75.209 25.7279Z" fill="#FFA000"/>
<path d="M75.209 19.7904C68.6777 19.7904 63.334 18.0091 63.334 15.832V19.7904C63.334 21.9674 68.6777 23.7487 75.209 23.7487C81.7402 23.7487 87.084 21.9674 87.084 19.7904V15.832C87.084 18.0091 81.7402 19.7904 75.209 19.7904ZM75.209 31.6654C68.6777 31.6654 63.334 29.8841 63.334 27.707V31.6654C63.334 33.8424 68.6777 35.6237 75.209 35.6237C81.7402 35.6237 87.084 33.8424 87.084 31.6654V27.707C87.084 29.8841 81.7402 31.6654 75.209 31.6654Z" fill="#FFA000"/>
<path d="M75.209 37.6029C68.6777 37.6029 63.334 35.8216 63.334 33.6445V37.6029C63.334 39.7799 68.6777 41.5612 75.209 41.5612C81.7402 41.5612 87.084 39.7799 87.084 37.6029V33.6445C87.084 35.8216 81.7402 37.6029 75.209 37.6029Z" fill="#FFA000"/>
<path d="M75.209 43.5404C68.6777 43.5404 63.334 41.7591 63.334 39.582V43.5404C63.334 45.7174 68.6777 47.4987 75.209 47.4987C81.7402 47.4987 87.084 45.7174 87.084 43.5404V39.582C87.084 41.7591 81.7402 43.5404 75.209 43.5404Z" fill="#FFA000"/>
<path d="M75.209 49.4779C68.6777 49.4779 63.334 47.6966 63.334 45.5195V49.4779C63.334 51.6549 68.6777 53.4362 75.209 53.4362C81.7402 53.4362 87.084 51.6549 87.084 49.4779V45.5195C87.084 47.6966 81.7402 49.4779 75.209 49.4779Z" fill="#FFA000"/>
<path d="M75.209 55.4154C68.6777 55.4154 63.334 53.6341 63.334 51.457V55.4154C63.334 57.5924 68.6777 59.3737 75.209 59.3737C81.7402 59.3737 87.084 57.5924 87.084 55.4154V51.457C87.084 53.6341 81.7402 55.4154 75.209 55.4154Z" fill="#FFA000"/>
<path d="M75.209 61.3529C68.6777 61.3529 63.334 59.5716 63.334 57.3945V61.3529C63.334 63.5299 68.6777 65.3112 75.209 65.3112C81.7402 65.3112 87.084 63.5299 87.084 61.3529V57.3945C87.084 59.5716 81.7402 61.3529 75.209 61.3529Z" fill="#FFA000"/>
<path d="M75.209 67.2904C68.6777 67.2904 63.334 65.5091 63.334 63.332V67.2904C63.334 69.4674 68.6777 71.2487 75.209 71.2487C81.7402 71.2487 87.084 69.4674 87.084 67.2904V63.332C87.084 65.5091 81.7402 67.2904 75.209 67.2904Z" fill="#FFA000"/>
<path d="M75.209 73.2279C68.6777 73.2279 63.334 71.4466 63.334 69.2695V73.2279C63.334 75.4049 68.6777 77.1862 75.209 77.1862C81.7402 77.1862 87.084 75.4049 87.084 73.2279V69.2695C87.084 71.4466 81.7402 73.2279 75.209 73.2279Z" fill="#FFA000"/>
<path d="M75.209 79.1654C68.6777 79.1654 63.334 77.3841 63.334 75.207V79.1654C63.334 81.3424 68.6777 83.1237 75.209 83.1237C81.7402 83.1237 87.084 81.3424 87.084 79.1654V75.207C87.084 77.3841 81.7402 79.1654 75.209 79.1654Z" fill="#FFA000"/>
<path d="M75.208 19.7917C81.7664 19.7917 87.083 18.0195 87.083 15.8333C87.083 13.6472 81.7664 11.875 75.208 11.875C68.6496 11.875 63.333 13.6472 63.333 15.8333C63.333 18.0195 68.6496 19.7917 75.208 19.7917Z" fill="#FFC107"/>
<path d="M75.208 23.75C69.6663 23.75 65.1143 22.5625 63.7288 20.7812C63.5309 21.1771 63.333 21.375 63.333 21.7708C63.333 23.9479 68.6768 25.7292 75.208 25.7292C81.7393 25.7292 87.083 23.9479 87.083 21.7708C87.083 21.375 86.8851 21.1771 86.6872 20.7812C85.3018 22.5625 80.7497 23.75 75.208 23.75ZM75.208 29.6875C69.6663 29.6875 65.1143 28.5 63.7288 26.7188C63.5309 27.1146 63.333 27.3125 63.333 27.7083C63.333 29.8854 68.6768 31.6667 75.208 31.6667C81.7393 31.6667 87.083 29.8854 87.083 27.7083C87.083 27.3125 86.8851 27.1146 86.6872 26.7188C85.3018 28.5 80.7497 29.6875 75.208 29.6875ZM75.208 35.625C69.6663 35.625 65.1143 34.4375 63.7288 32.6562C63.5309 33.0521 63.333 33.25 63.333 33.6458C63.333 35.8229 68.6768 37.6042 75.208 37.6042C81.7393 37.6042 87.083 35.8229 87.083 33.6458C87.083 33.25 86.8851 33.0521 86.6872 32.6562C85.3018 34.4375 80.7497 35.625 75.208 35.625ZM75.208 41.5625C69.6663 41.5625 65.1143 40.375 63.7288 38.5938C63.5309 38.9896 63.333 39.1875 63.333 39.5833C63.333 41.7604 68.6768 43.5417 75.208 43.5417C81.7393 43.5417 87.083 41.7604 87.083 39.5833C87.083 39.1875 86.8851 38.9896 86.6872 38.5938C85.3018 40.375 80.7497 41.5625 75.208 41.5625ZM75.208 47.5C69.6663 47.5 65.1143 46.3125 63.7288 44.5312C63.5309 44.9271 63.333 45.125 63.333 45.5208C63.333 47.6979 68.6768 49.4792 75.208 49.4792C81.7393 49.4792 87.083 47.6979 87.083 45.5208C87.083 45.125 86.8851 44.9271 86.6872 44.5312C85.3018 46.3125 80.7497 47.5 75.208 47.5ZM75.208 53.4375C69.6663 53.4375 65.1143 52.25 63.7288 50.4688C63.5309 50.8646 63.333 51.0625 63.333 51.4583C63.333 53.6354 68.6768 55.4167 75.208 55.4167C81.7393 55.4167 87.083 53.6354 87.083 51.4583C87.083 51.0625 86.8851 50.8646 86.6872 50.4688C85.3018 52.25 80.7497 53.4375 75.208 53.4375ZM75.208 59.375C69.6663 59.375 65.1143 58.1875 63.7288 56.4062C63.5309 56.8021 63.333 57 63.333 57.3958C63.333 59.5729 68.6768 61.3542 75.208 61.3542C81.7393 61.3542 87.083 59.5729 87.083 57.3958C87.083 57 86.8851 56.8021 86.6872 56.4062C85.3018 58.1875 80.7497 59.375 75.208 59.375ZM75.208 65.3125C69.6663 65.3125 65.1143 64.125 63.7288 62.3438C63.5309 62.7396 63.333 62.9375 63.333 63.3333C63.333 65.5104 68.6768 67.2917 75.208 67.2917C81.7393 67.2917 87.083 65.5104 87.083 63.3333C87.083 62.9375 86.8851 62.7396 86.6872 62.3438C85.3018 64.125 80.7497 65.3125 75.208 65.3125ZM75.208 71.25C69.6663 71.25 65.1143 70.0625 63.7288 68.2812C63.5309 68.6771 63.333 68.875 63.333 69.2708C63.333 71.4479 68.6768 73.2292 75.208 73.2292C81.7393 73.2292 87.083 71.4479 87.083 69.2708C87.083 68.875 86.8851 68.6771 86.6872 68.2812C85.3018 70.0625 80.7497 71.25 75.208 71.25ZM75.208 77.1875C69.6663 77.1875 65.1143 76 63.7288 74.2188C63.5309 74.6146 63.333 74.8125 63.333 75.2083C63.333 77.3854 68.6768 79.1667 75.208 79.1667C81.7393 79.1667 87.083 77.3854 87.083 75.2083C87.083 74.8125 86.8851 74.6146 86.6872 74.2188C85.3018 76 80.7497 77.1875 75.208 77.1875Z" fill="#FFC107"/>
<path d="M19.791 37.6029C13.2598 37.6029 7.91602 35.8216 7.91602 33.6445V37.6029C7.91602 39.7799 13.2598 41.5612 19.791 41.5612C26.3223 41.5612 31.666 39.7799 31.666 37.6029V33.6445C31.666 35.8216 26.3223 37.6029 19.791 37.6029Z" fill="#FFA000"/>
<path d="M19.791 31.6654C13.2598 31.6654 7.91602 29.8841 7.91602 27.707V31.6654C7.91602 33.8424 13.2598 35.6237 19.791 35.6237C26.3223 35.6237 31.666 33.8424 31.666 31.6654V27.707C31.666 29.8841 26.3223 31.6654 19.791 31.6654ZM19.791 43.5404C13.2598 43.5404 7.91602 41.7591 7.91602 39.582V43.5404C7.91602 45.7174 13.2598 47.4987 19.791 47.4987C26.3223 47.4987 31.666 45.7174 31.666 43.5404V39.582C31.666 41.7591 26.3223 43.5404 19.791 43.5404Z" fill="#FFA000"/>
<path d="M19.791 49.4779C13.2598 49.4779 7.91602 47.6966 7.91602 45.5195V49.4779C7.91602 51.6549 13.2598 53.4362 19.791 53.4362C26.3223 53.4362 31.666 51.6549 31.666 49.4779V45.5195C31.666 47.6966 26.3223 49.4779 19.791 49.4779Z" fill="#FFA000"/>
<path d="M19.791 55.4154C13.2598 55.4154 7.91602 53.6341 7.91602 51.457V55.4154C7.91602 57.5924 13.2598 59.3737 19.791 59.3737C26.3223 59.3737 31.666 57.5924 31.666 55.4154V51.457C31.666 53.6341 26.3223 55.4154 19.791 55.4154Z" fill="#FFA000"/>
<path d="M19.791 61.3529C13.2598 61.3529 7.91602 59.5716 7.91602 57.3945V61.3529C7.91602 63.5299 13.2598 65.3112 19.791 65.3112C26.3223 65.3112 31.666 63.5299 31.666 61.3529V57.3945C31.666 59.5716 26.3223 61.3529 19.791 61.3529Z" fill="#FFA000"/>
<path d="M19.791 67.2904C13.2598 67.2904 7.91602 65.5091 7.91602 63.332V67.2904C7.91602 69.4674 13.2598 71.2487 19.791 71.2487C26.3223 71.2487 31.666 69.4674 31.666 67.2904V63.332C31.666 65.5091 26.3223 67.2904 19.791 67.2904Z" fill="#FFA000"/>
<path d="M19.791 73.2279C13.2598 73.2279 7.91602 71.4466 7.91602 69.2695V73.2279C7.91602 75.4049 13.2598 77.1862 19.791 77.1862C26.3223 77.1862 31.666 75.4049 31.666 73.2279V69.2695C31.666 71.4466 26.3223 73.2279 19.791 73.2279Z" fill="#FFA000"/>
<path d="M19.791 79.1654C13.2598 79.1654 7.91602 77.3841 7.91602 75.207V79.1654C7.91602 81.3424 13.2598 83.1237 19.791 83.1237C26.3223 83.1237 31.666 81.3424 31.666 79.1654V75.207C31.666 77.3841 26.3223 79.1654 19.791 79.1654Z" fill="#FFA000"/>
<path d="M19.792 31.6667C26.3504 31.6667 31.667 29.8945 31.667 27.7083C31.667 25.5222 26.3504 23.75 19.792 23.75C13.2336 23.75 7.91699 25.5222 7.91699 27.7083C7.91699 29.8945 13.2336 31.6667 19.792 31.6667Z" fill="#FFC107"/>
<path d="M19.792 35.625C14.2503 35.625 9.69824 34.4375 8.31283 32.6562C8.11491 33.0521 7.91699 33.25 7.91699 33.6458C7.91699 35.8229 13.2607 37.6042 19.792 37.6042C26.3232 37.6042 31.667 35.8229 31.667 33.6458C31.667 33.25 31.4691 33.0521 31.2712 32.6562C29.8857 34.4375 25.3337 35.625 19.792 35.625ZM19.792 41.5625C14.2503 41.5625 9.69824 40.375 8.31283 38.5937C8.11491 38.9896 7.91699 39.1875 7.91699 39.5833C7.91699 41.7604 13.2607 43.5417 19.792 43.5417C26.3232 43.5417 31.667 41.7604 31.667 39.5833C31.667 39.1875 31.4691 38.9896 31.2712 38.5937C29.8857 40.375 25.3337 41.5625 19.792 41.5625ZM19.792 47.5C14.2503 47.5 9.69824 46.3125 8.31283 44.5312C8.11491 44.9271 7.91699 45.125 7.91699 45.5208C7.91699 47.6979 13.2607 49.4792 19.792 49.4792C26.3232 49.4792 31.667 47.6979 31.667 45.5208C31.667 45.125 31.4691 44.9271 31.2712 44.5312C29.8857 46.3125 25.3337 47.5 19.792 47.5ZM19.792 53.4375C14.2503 53.4375 9.69824 52.25 8.31283 50.4687C8.11491 50.8646 7.91699 51.0625 7.91699 51.4583C7.91699 53.6354 13.2607 55.4167 19.792 55.4167C26.3232 55.4167 31.667 53.6354 31.667 51.4583C31.667 51.0625 31.4691 50.8646 31.2712 50.4687C29.8857 52.25 25.3337 53.4375 19.792 53.4375ZM19.792 59.375C14.2503 59.375 9.69824 58.1875 8.31283 56.4062C8.11491 56.8021 7.91699 57 7.91699 57.3958C7.91699 59.5729 13.2607 61.3542 19.792 61.3542C26.3232 61.3542 31.667 59.5729 31.667 57.3958C31.667 57 31.4691 56.8021 31.2712 56.4062C29.8857 58.1875 25.3337 59.375 19.792 59.375ZM19.792 65.3125C14.2503 65.3125 9.69824 64.125 8.31283 62.3437C8.11491 62.7396 7.91699 62.9375 7.91699 63.3333C7.91699 65.5104 13.2607 67.2917 19.792 67.2917C26.3232 67.2917 31.667 65.5104 31.667 63.3333C31.667 62.9375 31.4691 62.7396 31.2712 62.3437C29.8857 64.125 25.3337 65.3125 19.792 65.3125ZM19.792 71.25C14.2503 71.25 9.69824 70.0625 8.31283 68.2812C8.11491 68.6771 7.91699 68.875 7.91699 69.2708C7.91699 71.4479 13.2607 73.2292 19.792 73.2292C26.3232 73.2292 31.667 71.4479 31.667 69.2708C31.667 68.875 31.4691 68.6771 31.2712 68.2812C29.8857 70.0625 25.3337 71.25 19.792 71.25ZM19.792 77.1875C14.2503 77.1875 9.69824 76 8.31283 74.2187C8.11491 74.6146 7.91699 74.8125 7.91699 75.2083C7.91699 77.3854 13.2607 79.1667 19.792 79.1667C26.3232 79.1667 31.667 77.3854 31.667 75.2083C31.667 74.8125 31.4691 74.6146 31.2712 74.2187C29.8857 76 25.3337 77.1875 19.792 77.1875Z" fill="#FFC107"/>
<path d="M47.5 55.4154C40.9688 55.4154 35.625 53.6341 35.625 51.457V55.4154C35.625 57.5924 40.9688 59.3737 47.5 59.3737C54.0312 59.3737 59.375 57.5924 59.375 55.4154V51.457C59.375 53.6341 54.0312 55.4154 47.5 55.4154Z" fill="#FFA000"/>
<path d="M47.5 49.4779C40.9688 49.4779 35.625 47.6966 35.625 45.5195V49.4779C35.625 51.6549 40.9688 53.4362 47.5 53.4362C54.0312 53.4362 59.375 51.6549 59.375 49.4779V45.5195C59.375 47.6966 54.0312 49.4779 47.5 49.4779ZM47.5 61.3529C40.9688 61.3529 35.625 59.5716 35.625 57.3945V61.3529C35.625 63.5299 40.9688 65.3112 47.5 65.3112C54.0312 65.3112 59.375 63.5299 59.375 61.3529V57.3945C59.375 59.5716 54.0312 61.3529 47.5 61.3529Z" fill="#FFA000"/>
<path d="M47.5 67.2904C40.9688 67.2904 35.625 65.5091 35.625 63.332V67.2904C35.625 69.4674 40.9688 71.2487 47.5 71.2487C54.0312 71.2487 59.375 69.4674 59.375 67.2904V63.332C59.375 65.5091 54.0312 67.2904 47.5 67.2904Z" fill="#FFA000"/>
<path d="M47.5 73.2279C40.9688 73.2279 35.625 71.4466 35.625 69.2695V73.2279C35.625 75.4049 40.9688 77.1862 47.5 77.1862C54.0312 77.1862 59.375 75.4049 59.375 73.2279V69.2695C59.375 71.4466 54.0312 73.2279 47.5 73.2279Z" fill="#FFA000"/>
<path d="M47.5 79.1654C40.9688 79.1654 35.625 77.3841 35.625 75.207V79.1654C35.625 81.3424 40.9688 83.1237 47.5 83.1237C54.0312 83.1237 59.375 81.3424 59.375 79.1654V75.207C59.375 77.3841 54.0312 79.1654 47.5 79.1654Z" fill="#FFA000"/>
<path d="M47.5 49.4792C54.0584 49.4792 59.375 47.707 59.375 45.5208C59.375 43.3347 54.0584 41.5625 47.5 41.5625C40.9416 41.5625 35.625 43.3347 35.625 45.5208C35.625 47.707 40.9416 49.4792 47.5 49.4792Z" fill="#FFC107"/>
<path d="M47.5 53.4375C41.9583 53.4375 37.4063 52.25 36.0208 50.4688C35.8229 50.8646 35.625 51.0625 35.625 51.4583C35.625 53.6354 40.9688 55.4167 47.5 55.4167C54.0312 55.4167 59.375 53.6354 59.375 51.4583C59.375 51.0625 59.1771 50.8646 58.9792 50.4688C57.5937 52.25 53.0417 53.4375 47.5 53.4375ZM47.5 59.375C41.9583 59.375 37.4063 58.1875 36.0208 56.4062C35.8229 56.8021 35.625 57 35.625 57.3958C35.625 59.5729 40.9688 61.3542 47.5 61.3542C54.0312 61.3542 59.375 59.5729 59.375 57.3958C59.375 57 59.1771 56.8021 58.9792 56.4062C57.5937 58.1875 53.0417 59.375 47.5 59.375ZM47.5 65.3125C41.9583 65.3125 37.4063 64.125 36.0208 62.3438C35.8229 62.7396 35.625 62.9375 35.625 63.3333C35.625 65.5104 40.9688 67.2917 47.5 67.2917C54.0312 67.2917 59.375 65.5104 59.375 63.3333C59.375 62.9375 59.1771 62.7396 58.9792 62.3438C57.5937 64.125 53.0417 65.3125 47.5 65.3125ZM47.5 71.25C41.9583 71.25 37.4063 70.0625 36.0208 68.2812C35.8229 68.6771 35.625 68.875 35.625 69.2708C35.625 71.4479 40.9688 73.2292 47.5 73.2292C54.0312 73.2292 59.375 71.4479 59.375 69.2708C59.375 68.875 59.1771 68.6771 58.9792 68.2812C57.5937 70.0625 53.0417 71.25 47.5 71.25ZM47.5 77.1875C41.9583 77.1875 37.4063 76 36.0208 74.2188C35.8229 74.6146 35.625 74.8125 35.625 75.2083C35.625 77.3854 40.9688 79.1667 47.5 79.1667C54.0312 79.1667 59.375 77.3854 59.375 75.2083C59.375 74.8125 59.1771 74.6146 58.9792 74.2188C57.5937 76 53.0417 77.1875 47.5 77.1875Z" fill="#FFC107"/>
</svg>
