<svg width="29" height="30" viewBox="0 0 29 30" fill="none" xmlns="http://www.w3.org/2000/svg">
<path fill-rule="evenodd" clip-rule="evenodd" d="M4.01538 0H3.90385C3.393 0 2.95354 1.66205e-08 2.56538 0.0914616C1.9645 0.235045 1.41509 0.54218 0.978037 0.978838C0.540986 1.4155 0.233355 1.96463 0.0892307 2.56539C-8.31026e-08 2.95354 0 3.39077 0 3.90385V9.48077C0 9.99162 1.66205e-08 10.4311 0.0914616 10.8192C0.235045 11.4201 0.54218 11.9695 0.978838 12.4066C1.4155 12.8436 1.96463 13.1513 2.56538 13.2954C2.95354 13.3846 3.39077 13.3846 3.90385 13.3846H9.48077C9.99162 13.3846 10.4311 13.3846 10.8192 13.2932C11.4201 13.1496 11.9695 12.8424 12.4066 12.4058C12.8436 11.9691 13.1513 11.42 13.2954 10.8192C13.3846 10.4311 13.3846 9.99385 13.3846 9.48077V3.90385C13.3846 3.393 13.3846 2.95354 13.2932 2.56539C13.1496 1.9645 12.8424 1.41509 12.4058 0.978037C11.9691 0.540986 11.42 0.233355 10.8192 0.0892307C10.4311 -8.31026e-08 9.99385 0 9.48077 0H4.01538ZM3.08515 2.262C3.18108 2.23969 3.33054 2.23077 4.01538 2.23077H9.36923C10.0563 2.23077 10.2035 2.23746 10.2995 2.262C10.4999 2.30992 10.6831 2.41241 10.8287 2.5581C10.9744 2.70379 11.0769 2.887 11.1248 3.08738C11.1472 3.18108 11.1538 3.32831 11.1538 4.01538V9.36923C11.1538 10.0563 11.1472 10.2035 11.1226 10.2995C11.0747 10.4999 10.9722 10.6831 10.8265 10.8287C10.6808 10.9744 10.4976 11.0769 10.2972 11.1248C10.2058 11.1449 10.0585 11.1538 9.36923 11.1538H4.01538C3.32831 11.1538 3.18108 11.1472 3.08515 11.1226C2.88476 11.0747 2.70156 10.9722 2.55587 10.8265C2.41018 10.6808 2.30769 10.4976 2.25977 10.2972C2.23969 10.2058 2.23077 10.0585 2.23077 9.36923V4.01538C2.23077 3.32831 2.23746 3.18108 2.262 3.08515C2.30992 2.88476 2.41241 2.70156 2.5581 2.55587C2.70379 2.41018 2.88699 2.30769 3.08738 2.25977L3.08515 2.262ZM19.6308 0H19.5192C19.0084 0 18.5689 1.66205e-08 18.1808 0.0914616C17.5799 0.235045 17.0305 0.54218 16.5934 0.978838C16.1564 1.4155 15.8487 1.96463 15.7046 2.56539C15.6154 2.95354 15.6154 3.39077 15.6154 3.90385V9.48077C15.6154 9.99162 15.6154 10.4311 15.7068 10.8192C15.8504 11.4201 16.1576 11.9695 16.5942 12.4066C17.0309 12.8436 17.58 13.1513 18.1808 13.2954C18.5689 13.3846 19.0062 13.3846 19.5192 13.3846H25.0962C25.607 13.3846 26.0465 13.3846 26.4346 13.2932C27.0355 13.1496 27.5849 12.8424 28.022 12.4058C28.459 11.9691 28.7666 11.42 28.9108 10.8192C29 10.4311 29 9.99385 29 9.48077V3.90385C29 3.393 29 2.95354 28.9085 2.56539C28.765 1.9645 28.4578 1.41509 28.0212 0.978037C27.5845 0.540986 27.0354 0.233355 26.4346 0.0892307C26.0465 -8.31026e-08 25.6092 0 25.0962 0H19.6308ZM18.7005 2.262C18.7965 2.23969 18.9459 2.23077 19.6308 2.23077H24.9846C25.6717 2.23077 25.8189 2.23746 25.9148 2.262C26.1152 2.30992 26.2984 2.41241 26.4441 2.5581C26.5898 2.70379 26.6923 2.887 26.7402 3.08738C26.7625 3.18108 26.7692 3.32831 26.7692 4.01538V9.36923C26.7692 10.0563 26.7603 10.2035 26.738 10.2995C26.6901 10.4999 26.5876 10.6831 26.4419 10.8287C26.2962 10.9744 26.113 11.0769 25.9126 11.1248C25.8189 11.1472 25.6717 11.1538 24.9846 11.1538H19.6308C18.9437 11.1538 18.7965 11.1472 18.7005 11.1226C18.5001 11.0747 18.3169 10.9722 18.1713 10.8265C18.0256 10.6808 17.9231 10.4976 17.8752 10.2972C17.8551 10.2058 17.8462 10.0585 17.8462 9.36923V4.01538C17.8462 3.32831 17.8528 3.18108 17.8774 3.08515C17.9253 2.88476 18.0278 2.70156 18.1735 2.55587C18.3192 2.41018 18.5024 2.30769 18.7028 2.25977L18.7005 2.262ZM3.90385 15.6154H9.48077C9.99162 15.6154 10.4311 15.6154 10.8192 15.7068C11.4201 15.8504 11.9695 16.1576 12.4066 16.5942C12.8436 17.0309 13.1513 17.58 13.2954 18.1808C13.3846 18.5689 13.3846 19.0062 13.3846 19.5192V25.0962C13.3846 25.607 13.3846 26.0465 13.2932 26.4346C13.1496 27.0355 12.8424 27.5849 12.4058 28.022C11.9691 28.459 11.42 28.7666 10.8192 28.9108C10.4311 29 9.99385 29 9.48077 29H3.90385C3.393 29 2.95354 29 2.56538 28.9085C1.9645 28.765 1.41509 28.4578 0.978037 28.0212C0.540986 27.5845 0.233355 27.0354 0.0892307 26.4346C-8.31026e-08 26.0465 0 25.6092 0 25.0962V19.5192C0 19.0084 1.66205e-08 18.5689 0.0914616 18.1808C0.235045 17.5799 0.54218 17.0305 0.978838 16.5934C1.4155 16.1564 1.96463 15.8487 2.56538 15.7046C2.95354 15.6154 3.39077 15.6154 3.90385 15.6154ZM4.01538 17.8462C3.32831 17.8462 3.18108 17.8528 3.08515 17.8774C2.88476 17.9253 2.70156 18.0278 2.55587 18.1735C2.41018 18.3192 2.30769 18.5024 2.25977 18.7028C2.23969 18.7942 2.23077 18.9415 2.23077 19.6308V24.9846C2.23077 25.6717 2.23746 25.8189 2.262 25.9148C2.30992 26.1152 2.41241 26.2984 2.5581 26.4441C2.70379 26.5898 2.88699 26.6923 3.08738 26.7402C3.18108 26.7625 3.32831 26.7692 4.01538 26.7692H9.36923C10.0563 26.7692 10.2035 26.7603 10.2995 26.738C10.4999 26.6901 10.6831 26.5876 10.8287 26.4419C10.9744 26.2962 11.0769 26.113 11.1248 25.9126C11.1472 25.8189 11.1538 25.6717 11.1538 24.9846V19.6308C11.1538 18.9437 11.1472 18.7965 11.1226 18.7005C11.0747 18.5002 10.9722 18.3169 10.8265 18.1713C10.6808 18.0256 10.4976 17.9231 10.2972 17.8752C10.2058 17.8551 10.0585 17.8462 9.36923 17.8462H4.01538ZM19.6308 15.6154H19.5192C19.0084 15.6154 18.5689 15.6154 18.1808 15.7068C17.5799 15.8504 17.0305 16.1576 16.5934 16.5942C16.1564 17.0309 15.8487 17.58 15.7046 18.1808C15.6154 18.5689 15.6154 19.0062 15.6154 19.5192V25.0962C15.6154 25.607 15.6154 26.0465 15.7068 26.4346C15.8504 27.0355 16.1576 27.5849 16.5942 28.022C17.0309 28.459 17.58 28.7666 18.1808 28.9108C18.5689 29.0022 19.0084 29.0022 19.5192 29.0022H25.0962C25.607 29.0022 26.0465 29.0022 26.4346 28.9108C27.0351 28.7668 27.584 28.4595 28.0207 28.0229C28.4573 27.5863 28.7646 27.0373 28.9085 26.4368C29 26.0487 29 25.6092 29 25.0984V19.5192C29 19.0084 29 18.5689 28.9085 18.1808C28.765 17.5799 28.4578 17.0305 28.0212 16.5934C27.5845 16.1564 27.0354 15.8487 26.4346 15.7046C26.0465 15.6154 25.6092 15.6154 25.0962 15.6154H19.6308ZM18.7005 17.8774C18.7965 17.8551 18.9459 17.8462 19.6308 17.8462H24.9846C25.6717 17.8462 25.8189 17.8528 25.9148 17.8774C26.1152 17.9253 26.2984 18.0278 26.4441 18.1735C26.5898 18.3192 26.6923 18.5024 26.7402 18.7028C26.7625 18.7965 26.7692 18.9437 26.7692 19.6308V24.9846C26.7692 25.6717 26.7603 25.8189 26.738 25.9148C26.6901 26.1152 26.5876 26.2984 26.4419 26.4441C26.2962 26.5898 26.113 26.6923 25.9126 26.7402C25.8189 26.7625 25.6717 26.7692 24.9846 26.7692H19.6308C18.9437 26.7692 18.7965 26.7603 18.7005 26.738C18.5001 26.6901 18.3169 26.5876 18.1713 26.4419C18.0256 26.2962 17.9231 26.113 17.8752 25.9126C17.8551 25.8212 17.8462 25.6739 17.8462 24.9846V19.6308C17.8462 18.9437 17.8528 18.7965 17.8774 18.7005C17.9253 18.5002 18.0278 18.3169 18.1735 18.1713C18.3192 18.0256 18.5024 17.9231 18.7028 17.8752L18.7005 17.8774Z" fill="#A46E05"/>
</svg>
