<svg width="16" height="17" viewBox="0 0 16 17" fill="none" xmlns="http://www.w3.org/2000/svg">
<path fill-rule="evenodd" clip-rule="evenodd" d="M2.21538 0.499023H2.15385C1.872 0.499023 1.62954 0.499023 1.41538 0.549485C1.08386 0.628703 0.780739 0.798157 0.539607 1.03907C0.298475 1.27999 0.128748 1.58295 0.0492307 1.91441C-4.58497e-08 2.12856 0 2.36979 0 2.65287V5.72979C0 6.01164 9.16995e-09 6.2541 0.0504615 6.46825C0.12968 6.79978 0.299134 7.1029 0.540048 7.34403C0.780963 7.58516 1.08393 7.75489 1.41538 7.83441C1.62954 7.88364 1.87077 7.88364 2.15385 7.88364H5.23077C5.51262 7.88364 5.75508 7.88364 5.96923 7.83318C6.30076 7.75396 6.60388 7.58451 6.84501 7.34359C7.08614 7.10268 7.25587 6.79971 7.33538 6.46825C7.38462 6.2541 7.38462 6.01287 7.38462 5.72979V2.65287C7.38462 2.37102 7.38462 2.12856 7.33415 1.91441C7.25494 1.58288 7.08548 1.27976 6.84457 1.03863C6.60365 0.797499 6.30068 0.627771 5.96923 0.548254C5.75508 0.499023 5.51385 0.499023 5.23077 0.499023H2.21538ZM1.70215 1.74702C1.75508 1.73472 1.83754 1.72979 2.21538 1.72979H5.16923C5.54831 1.72979 5.62954 1.73348 5.68246 1.74702C5.79302 1.77346 5.8941 1.83001 5.97448 1.91039C6.05486 1.99077 6.11141 2.09185 6.13785 2.20241C6.15015 2.2541 6.15385 2.33533 6.15385 2.71441V5.66825C6.15385 6.04733 6.15015 6.12856 6.13662 6.18149C6.11018 6.29205 6.05363 6.39312 5.97325 6.4735C5.89287 6.55388 5.79179 6.61043 5.68123 6.63687C5.63077 6.64795 5.54954 6.65287 5.16923 6.65287H2.21538C1.83631 6.65287 1.75508 6.64918 1.70215 6.63564C1.59159 6.6092 1.49052 6.55265 1.41014 6.47227C1.32975 6.39189 1.27321 6.29081 1.24677 6.18025C1.23569 6.12979 1.23077 6.04856 1.23077 5.66825V2.71441C1.23077 2.33533 1.23446 2.2541 1.248 2.20118C1.27444 2.09062 1.33098 1.98954 1.41137 1.90916C1.49175 1.82878 1.59282 1.77223 1.70338 1.74579L1.70215 1.74702ZM10.8308 0.499023H10.7692C10.4874 0.499023 10.2449 0.499023 10.0308 0.549485C9.69924 0.628703 9.39612 0.798157 9.15499 1.03907C8.91386 1.27999 8.74413 1.58295 8.66462 1.91441C8.61539 2.12856 8.61539 2.36979 8.61539 2.65287V5.72979C8.61539 6.01164 8.61539 6.2541 8.66585 6.46825C8.74507 6.79978 8.91452 7.1029 9.15543 7.34403C9.39635 7.58516 9.69932 7.75489 10.0308 7.83441C10.2449 7.88364 10.4862 7.88364 10.7692 7.88364H13.8462C14.128 7.88364 14.3705 7.88364 14.5846 7.83318C14.9161 7.75396 15.2193 7.58451 15.4604 7.34359C15.7015 7.10268 15.8713 6.79971 15.9508 6.46825C16 6.2541 16 6.01287 16 5.72979V2.65287C16 2.37102 16 2.12856 15.9495 1.91441C15.8703 1.58288 15.7009 1.27976 15.46 1.03863C15.219 0.797499 14.9161 0.627771 14.5846 0.548254C14.3705 0.499023 14.1292 0.499023 13.8462 0.499023H10.8308ZM10.3175 1.74702C10.3705 1.73472 10.4529 1.72979 10.8308 1.72979H13.7846C14.1637 1.72979 14.2449 1.73348 14.2978 1.74702C14.4084 1.77346 14.5095 1.83001 14.5899 1.91039C14.6702 1.99077 14.7268 2.09185 14.7532 2.20241C14.7655 2.2541 14.7692 2.33533 14.7692 2.71441V5.66825C14.7692 6.04733 14.7643 6.12856 14.752 6.18149C14.7256 6.29205 14.669 6.39312 14.5886 6.4735C14.5083 6.55388 14.4072 6.61043 14.2966 6.63687C14.2449 6.64918 14.1637 6.65287 13.7846 6.65287H10.8308C10.4517 6.65287 10.3705 6.64918 10.3175 6.63564C10.207 6.6092 10.1059 6.55265 10.0255 6.47227C9.94514 6.39189 9.88859 6.29081 9.86215 6.18025C9.85108 6.12979 9.84615 6.04856 9.84615 5.66825V2.71441C9.84615 2.33533 9.84985 2.2541 9.86339 2.20118C9.88982 2.09062 9.94637 1.98954 10.0268 1.90916C10.1071 1.82878 10.2082 1.77223 10.3188 1.74579L10.3175 1.74702ZM2.15385 9.11441H5.23077C5.51262 9.11441 5.75508 9.11441 5.96923 9.16487C6.30076 9.24409 6.60388 9.41354 6.84501 9.65446C7.08614 9.89537 7.25587 10.1983 7.33538 10.5298C7.38462 10.7439 7.38462 10.9852 7.38462 11.2683V14.3452C7.38462 14.627 7.38462 14.8695 7.33415 15.0836C7.25494 15.4152 7.08548 15.7183 6.84457 15.9594C6.60365 16.2005 6.30068 16.3703 5.96923 16.4498C5.75508 16.499 5.51385 16.499 5.23077 16.499H2.15385C1.872 16.499 1.62954 16.499 1.41538 16.4486C1.08386 16.3693 0.780739 16.1999 0.539607 15.959C0.298475 15.7181 0.128748 15.4151 0.0492307 15.0836C-4.58497e-08 14.8695 0 14.6283 0 14.3452V11.2683C0 10.9864 9.16995e-09 10.7439 0.0504615 10.5298C0.12968 10.1983 0.299134 9.89515 0.540048 9.65402C0.780963 9.41288 1.08393 9.24316 1.41538 9.16364C1.62954 9.11441 1.87077 9.11441 2.15385 9.11441ZM2.21538 10.3452C1.83631 10.3452 1.75508 10.3489 1.70215 10.3624C1.59159 10.3888 1.49052 10.4454 1.41014 10.5258C1.32975 10.6062 1.27321 10.7072 1.24677 10.8178C1.23569 10.8683 1.23077 10.9495 1.23077 11.3298V14.2836C1.23077 14.6627 1.23446 14.7439 1.248 14.7969C1.27444 14.9074 1.33098 15.0085 1.41137 15.0889C1.49175 15.1693 1.59282 15.2258 1.70338 15.2523C1.75508 15.2646 1.83631 15.2683 2.21538 15.2683H5.16923C5.54831 15.2683 5.62954 15.2633 5.68246 15.251C5.79302 15.2246 5.8941 15.168 5.97448 15.0877C6.05486 15.0073 6.11141 14.9062 6.13785 14.7956C6.15015 14.7439 6.15385 14.6627 6.15385 14.2836V11.3298C6.15385 10.9507 6.15015 10.8695 6.13662 10.8166C6.11018 10.706 6.05363 10.6049 5.97325 10.5245C5.89287 10.4442 5.79179 10.3876 5.68123 10.3612C5.63077 10.3501 5.54954 10.3452 5.16923 10.3452H2.21538ZM10.8308 9.11441H10.7692C10.4874 9.11441 10.2449 9.11441 10.0308 9.16487C9.69924 9.24409 9.39612 9.41354 9.15499 9.65446C8.91386 9.89537 8.74413 10.1983 8.66462 10.5298C8.61539 10.7439 8.61539 10.9852 8.61539 11.2683V14.3452C8.61539 14.627 8.61539 14.8695 8.66585 15.0836C8.74507 15.4152 8.91452 15.7183 9.15543 15.9594C9.39635 16.2005 9.69932 16.3703 10.0308 16.4498C10.2449 16.5003 10.4874 16.5003 10.7692 16.5003H13.8462C14.128 16.5003 14.3705 16.5003 14.5846 16.4498C14.9159 16.3704 15.2188 16.2008 15.4597 15.9599C15.7006 15.719 15.8701 15.4162 15.9495 15.0849C16 14.8707 16 14.6283 16 14.3464V11.2683C16 10.9864 16 10.7439 15.9495 10.5298C15.8703 10.1983 15.7009 9.89515 15.46 9.65402C15.219 9.41288 14.9161 9.24316 14.5846 9.16364C14.3705 9.11441 14.1292 9.11441 13.8462 9.11441H10.8308ZM10.3175 10.3624C10.3705 10.3501 10.4529 10.3452 10.8308 10.3452H13.7846C14.1637 10.3452 14.2449 10.3489 14.2978 10.3624C14.4084 10.3888 14.5095 10.4454 14.5899 10.5258C14.6702 10.6062 14.7268 10.7072 14.7532 10.8178C14.7655 10.8695 14.7692 10.9507 14.7692 11.3298V14.2836C14.7692 14.6627 14.7643 14.7439 14.752 14.7969C14.7256 14.9074 14.669 15.0085 14.5886 15.0889C14.5083 15.1693 14.4072 15.2258 14.2966 15.2523C14.2449 15.2646 14.1637 15.2683 13.7846 15.2683H10.8308C10.4517 15.2683 10.3705 15.2633 10.3175 15.251C10.207 15.2246 10.1059 15.168 10.0255 15.0877C9.94514 15.0073 9.88859 14.9062 9.86215 14.7956C9.85108 14.7452 9.84615 14.6639 9.84615 14.2836V11.3298C9.84615 10.9507 9.84985 10.8695 9.86339 10.8166C9.88982 10.706 9.94637 10.6049 10.0268 10.5245C10.1071 10.4442 10.2082 10.3876 10.3188 10.3612L10.3175 10.3624Z" fill="#A46E05"/>
</svg>
