<svg width="29" height="32" viewBox="0 0 29 32" fill="none" xmlns="http://www.w3.org/2000/svg">
<path d="M15.1302 7.44727C14.258 7.44727 13.4216 7.10082 12.8049 6.48414C12.1883 5.86745 11.8418 5.03105 11.8418 4.15892C11.8418 3.2868 12.1883 2.45039 12.8049 1.83371C13.4216 1.21702 14.258 0.870575 15.1302 0.870575C16.0023 0.870575 16.8387 1.21702 17.4554 1.83371C18.072 2.45039 18.4185 3.2868 18.4185 4.15892C18.4185 5.03105 18.072 5.86745 17.4554 6.48414C16.8387 7.10082 16.0023 7.44727 15.1302 7.44727ZM25.985 7.44727C25.1129 7.44727 24.2764 7.10082 23.6598 6.48414C23.0431 5.86745 22.6966 5.03105 22.6966 4.15892C22.6966 3.2868 23.0431 2.45039 23.6598 1.83371C24.2764 1.21702 25.1129 0.870575 25.985 0.870575C26.8571 0.870575 27.6935 1.21702 28.3102 1.83371C28.9269 2.45039 29.2733 3.2868 29.2733 4.15892C29.2733 5.03105 28.9269 5.86745 28.3102 6.48414C27.6935 7.10082 26.8571 7.44727 25.985 7.44727ZM3.28932 7.44727C2.4172 7.44727 1.5808 7.10082 0.964111 6.48414C0.347427 5.86745 0.000976661 5.03105 0.000976661 4.15892C0.000976661 3.2868 0.347427 2.45039 0.964111 1.83371C1.5808 1.21702 2.4172 0.870575 3.28932 0.870575C4.16145 0.870575 4.99785 1.21702 5.61454 1.83371C6.23122 2.45039 6.57767 3.2868 6.57767 4.15892C6.57767 5.03105 6.23122 5.86745 5.61454 6.48414C4.99785 7.10082 4.16145 7.44727 3.28932 7.44727ZM15.1302 19.2881C14.6983 19.2881 14.2707 19.203 13.8718 19.0378C13.4728 18.8725 13.1103 18.6303 12.8049 18.325C12.4996 18.0196 12.2574 17.6571 12.0921 17.2581C11.9269 16.8592 11.8418 16.4316 11.8418 15.9997C11.8418 15.5679 11.9269 15.1403 12.0921 14.7414C12.2574 14.3424 12.4996 13.9799 12.8049 13.6745C13.1103 13.3692 13.4728 13.127 13.8718 12.9617C14.2707 12.7965 14.6983 12.7114 15.1302 12.7114C16.0023 12.7114 16.8387 13.0578 17.4554 13.6745C18.072 14.2912 18.4185 15.1276 18.4185 15.9997C18.4185 16.8719 18.072 17.7083 17.4554 18.325C16.8387 18.9416 16.0023 19.2881 15.1302 19.2881ZM25.985 19.2881C25.5531 19.2881 25.1255 19.203 24.7266 19.0378C24.3276 18.8725 23.9651 18.6303 23.6598 18.325C23.3544 18.0196 23.1122 17.6571 22.9469 17.2581C22.7817 16.8592 22.6966 16.4316 22.6966 15.9997C22.6966 15.5679 22.7817 15.1403 22.9469 14.7414C23.1122 14.3424 23.3544 13.9799 23.6598 13.6745C23.9651 13.3692 24.3276 13.127 24.7266 12.9617C25.1255 12.7965 25.5531 12.7114 25.985 12.7114C26.8571 12.7114 27.6935 13.0578 28.3102 13.6745C28.9269 14.2912 29.2733 15.1276 29.2733 15.9997C29.2733 16.8719 28.9269 17.7083 28.3102 18.325C27.6935 18.9416 26.8571 19.2881 25.985 19.2881ZM3.28932 19.2881C2.85749 19.2881 2.42989 19.203 2.03093 19.0378C1.63197 18.8725 1.26946 18.6303 0.964111 18.325C0.65876 18.0196 0.416542 17.6571 0.251287 17.2581C0.0860322 16.8592 0.000976591 16.4316 0.000976591 15.9997C0.000976591 15.5679 0.0860322 15.1403 0.251287 14.7414C0.416542 14.3424 0.65876 13.9799 0.964111 13.6745C1.26946 13.3692 1.63197 13.127 2.03093 12.9617C2.42989 12.7965 2.85749 12.7114 3.28932 12.7114C4.16145 12.7114 4.99785 13.0578 5.61454 13.6745C6.23122 14.2912 6.57767 15.1276 6.57767 15.9997C6.57767 16.8719 6.23122 17.7083 5.61454 18.325C4.99785 18.9416 4.16145 19.2881 3.28932 19.2881ZM15.1302 31.1289C14.6983 31.1289 14.2707 31.0439 13.8718 30.8786C13.4728 30.7134 13.1103 30.4711 12.8049 30.1658C12.4996 29.8604 12.2574 29.4979 12.0921 29.099C11.9269 28.7 11.8418 28.2724 11.8418 27.8406C11.8418 27.4087 11.9269 26.9811 12.0921 26.5822C12.2574 26.1832 12.4996 25.8207 12.8049 25.5154C13.1103 25.21 13.4728 24.9678 13.8718 24.8025C14.2707 24.6373 14.6983 24.5522 15.1302 24.5522C16.0024 24.5522 16.839 24.8987 17.4558 25.5155C18.0726 26.1323 18.4191 26.9689 18.4191 27.8412C18.4191 28.7135 18.0726 29.5501 17.4558 30.1669C16.839 30.7837 16.0024 31.1289 15.1302 31.1289ZM25.985 31.1289C25.5531 31.1289 25.1255 31.0439 24.7266 30.8786C24.3276 30.7134 23.9651 30.4711 23.6598 30.1658C23.3544 29.8604 23.1122 29.4979 22.9469 29.099C22.7817 28.7 22.6966 28.2724 22.6966 27.8406C22.6966 27.4087 22.7817 26.9811 22.9469 26.5822C23.1122 26.1832 23.3544 25.8207 23.6598 25.5154C23.9651 25.21 24.3276 24.9678 24.7266 24.8025C25.1255 24.6373 25.5531 24.5522 25.985 24.5522C26.8571 24.5522 27.6935 24.8987 28.3102 25.5154C28.9269 26.132 29.2733 26.9685 29.2733 27.8406C29.2733 28.7127 28.9269 29.5491 28.3102 30.1658C27.6935 30.7825 26.8571 31.1289 25.985 31.1289ZM3.28932 31.1289C2.85749 31.1289 2.42989 31.0439 2.03093 30.8786C1.63197 30.7134 1.26946 30.4711 0.964111 30.1658C0.65876 29.8604 0.416542 29.4979 0.251287 29.099C0.0860322 28.7 0.000976563 28.2724 0.000976562 27.8406C0.000976563 27.4087 0.0860322 26.9811 0.251287 26.5822C0.416542 26.1832 0.65876 25.8207 0.964111 25.5154C1.26946 25.21 1.63197 24.9678 2.03093 24.8025C2.42989 24.6373 2.85749 24.5522 3.28932 24.5522C4.16145 24.5522 4.99785 24.8987 5.61454 25.5154C6.23122 26.132 6.57767 26.9685 6.57767 27.8406C6.57767 28.7127 6.23122 29.5491 5.61454 30.1658C4.99785 30.7825 4.16145 31.1289 3.28932 31.1289Z" fill="white"/>
</svg>
