<svg width="8" height="6" viewBox="0 0 8 6" fill="none" xmlns="http://www.w3.org/2000/svg">
<path d="M0.209467 1.24336L3.78931 5.30582C3.85219 5.37717 3.93598 5.41664 4.02283 5.41581C4.10967 5.41497 4.19269 5.37391 4.25419 5.30136L7.75677 1.17095C7.78545 1.13716 7.80811 1.09687 7.82343 1.05246C7.83874 1.00804 7.8464 0.960411 7.84593 0.912369C7.84547 0.864326 7.83691 0.816848 7.82075 0.772737C7.80458 0.728626 7.78115 0.688777 7.75183 0.655541C7.69169 0.587161 7.61148 0.549326 7.52834 0.550123C7.44521 0.550921 7.36574 0.590288 7.30693 0.659808L4.01446 4.54391L0.648756 0.72368C0.588653 0.655537 0.508587 0.61785 0.425611 0.618646C0.342635 0.619442 0.263307 0.658658 0.204523 0.727942C0.175843 0.761735 0.153178 0.802026 0.137863 0.846439C0.122549 0.890852 0.114896 0.938486 0.115357 0.986528C0.115818 1.03457 0.124383 1.08205 0.140547 1.12616C0.15671 1.17027 0.180145 1.21012 0.209467 1.24336Z" fill="black"/>
</svg>
