<svg width="15" height="10" viewBox="0 0 15 10" fill="none" xmlns="http://www.w3.org/2000/svg">
<path d="M6.80126 -6.20901C3.76845 -6.21408 0.952368 -6.1255 0.987869 -5.92939L1.73441 -4.70748C3.7414 -4.87991 5.65508 -4.94246 7.57214 -4.92961C9.37087 -4.91778 11.173 -4.83934 13.0528 -4.72371L14.1077 -5.84892C13.9556 -6.07681 10.2398 -6.20326 6.80126 -6.20901ZM6.92974 -4.32204C5.26964 -4.31798 3.60616 -4.25476 1.86863 -4.10836C1.1319 0.0726628 0.723808 5.17468 1.68268 8.32245L0.789062 9.37058C5.12087 9.69516 9.52978 9.79997 13.7257 9.58358L12.7147 8.37992C13.3673 4.78924 13.1644 -0.113296 12.7215 -4.13405C10.9904 -4.23751 9.33029 -4.30649 7.67357 -4.31967L12.211 -0.153868H9.80026C9.92874 0.627156 10.49 1.68205 11.0817 2.65917C11.4164 3.21367 11.7579 3.75126 12.0182 4.2246C12.2786 4.69795 12.4781 5.09354 12.4781 5.4925C12.4781 6.4392 11.839 7.21684 10.8991 7.72062C9.95917 8.22778 8.69804 8.50164 7.30504 8.50164C5.91204 8.50164 4.65091 8.22778 3.71097 7.72062C2.77104 7.21684 2.13202 6.4392 2.13202 5.4925C2.13202 5.08677 2.34164 4.69119 2.61551 4.21108C2.88938 3.73097 3.24439 3.19 3.58926 2.62874C4.19785 1.64485 4.75234 0.583202 4.8301 -0.153868H2.16583L6.92974 -4.32204ZM7.30166 -3.83618L3.78874 -0.762459H5.42179L5.44546 -0.485212C5.53675 0.593346 4.80644 1.81391 4.10656 2.94994C3.75493 3.51796 3.4033 4.05555 3.14634 4.51199C2.886 4.96505 2.74061 5.35726 2.74061 5.4925C2.74061 5.98613 2.97728 6.42229 3.4202 6.79759C5.25274 6.56768 6.19267 6.4392 7.01765 6.41215C7.03794 6.12476 7.07513 5.83737 7.12246 5.56012C5.88499 5.63789 4.74558 5.30654 3.62307 4.90758C4.12684 3.93383 5.05325 3.25424 5.88838 3.25762C6.0439 3.25762 6.19605 3.27791 6.34144 3.32862C6.72012 3.45034 7.0616 4.12993 7.28813 4.70133C7.36252 4.34632 7.43352 4.04203 7.46395 3.81888V3.81549C7.49438 3.60587 7.40985 3.00404 7.30166 2.50702C7.22389 2.14863 7.14275 1.83419 7.10218 1.68543C6.88917 1.68543 6.69983 1.64486 6.57473 1.51637C5.71594 0.623775 6.27382 -1.02618 7.01089 -1.94583C7.53495 -1.07352 8.21793 -0.133582 8.90428 0.515582C8.75551 1.01598 8.48503 1.41832 7.96096 1.59752C7.88996 1.60428 7.80206 1.61443 7.71415 1.62795C7.76148 1.80377 7.8291 2.06749 7.89672 2.37516C7.94068 2.56788 7.98125 2.76737 8.01506 2.96685C8.19426 2.80118 8.4005 2.64903 8.56956 2.64227H8.60675C9.55344 2.73018 10.6252 3.64306 10.8957 4.9752C9.96593 4.54918 8.9009 4.796 8.05902 3.95412C7.96435 4.583 7.70062 5.52969 7.62962 6.41553C8.44446 6.44258 9.38439 6.57106 11.1899 6.79759C11.6328 6.42229 11.8695 5.98613 11.8695 5.4925C11.8695 5.3505 11.7308 4.96506 11.484 4.51876C11.2372 4.06907 10.9025 3.53825 10.561 2.97361C9.88141 1.8511 9.16462 0.630538 9.16462 -0.458164V-0.762459H10.6489L7.30166 -3.83618ZM7.30504 7.0106C6.55106 7.0106 5.75313 7.11203 4.23842 7.30475C5.03973 7.67328 6.11491 7.89305 7.30504 7.89305C8.49517 7.89305 9.57035 7.67328 10.3717 7.30475C8.85695 7.11203 8.05902 7.0106 7.30504 7.0106Z" fill="black"/>
</svg>
