<svg width="28" height="29" viewBox="0 0 28 29" fill="none" xmlns="http://www.w3.org/2000/svg">
<path d="M0.601562 1.77201V27.1021C0.601732 27.157 0.618123 27.2107 0.64868 27.2564C0.679236 27.3021 0.722598 27.3377 0.773329 27.3589C0.824059 27.38 0.879899 27.3857 0.933847 27.3752C0.987795 27.3647 1.03745 27.3385 1.07658 27.3L14.2656 14.4377L1.07658 1.57414C1.03745 1.53555 0.987795 1.50938 0.933847 1.49891C0.879899 1.48843 0.824059 1.49411 0.773329 1.51525C0.722598 1.53638 0.679236 1.57202 0.64868 1.61769C0.618123 1.66337 0.601732 1.71705 0.601562 1.77201ZM19.7957 9.15254L3.25832 0.0414422L3.24801 0.0356414C2.96312 -0.119046 2.69242 0.266384 2.92574 0.490681L15.8892 12.8863L19.7957 9.15254ZM2.92703 28.3847C2.69242 28.609 2.96313 28.9944 3.2493 28.8397L3.25961 28.8339L19.7957 19.7229L15.8892 15.9878L2.92703 28.3847ZM26.4718 12.8264L21.8537 10.283L17.5115 14.4377L21.8537 18.5904L26.4718 16.049C27.7279 15.3549 27.7279 13.5205 26.4718 12.8264Z" fill="black"/>
</svg>
