<svg width="28" height="28" viewBox="0 0 28 28" fill="none" xmlns="http://www.w3.org/2000/svg">
<path d="M25.4399 11.7151H24.5002V11.6667H14.0002V16.3333H20.5936C19.6317 19.0499 17.0469 21 14.0002 21C10.1344 21 7.00016 17.8658 7.00016 14C7.00016 10.1343 10.1344 7.00001 14.0002 7.00001C15.7846 7.00001 17.408 7.67318 18.6441 8.77276L21.944 5.47284C19.8603 3.53093 17.0732 2.33334 14.0002 2.33334C7.55725 2.33334 2.3335 7.55709 2.3335 14C2.3335 20.4429 7.55725 25.6667 14.0002 25.6667C20.4431 25.6667 25.6668 20.4429 25.6668 14C25.6668 13.2178 25.5863 12.4542 25.4399 11.7151Z" fill="#FFC107"/>
<path d="M3.67822 8.56976L7.51131 11.3808C8.54847 8.81301 11.0603 7.00001 13.9997 7.00001C15.7841 7.00001 17.4076 7.67318 18.6436 8.77276L21.9436 5.47284C19.8599 3.53093 17.0727 2.33334 13.9997 2.33334C9.51856 2.33334 5.63239 4.86326 3.67822 8.56976Z" fill="#FF3D00"/>
<path d="M14 25.6666C17.0135 25.6666 19.7517 24.5134 21.8219 22.638L18.2111 19.5825C17.0004 20.5032 15.521 21.0012 14 21C10.9655 21 8.38894 19.0651 7.41827 16.3648L3.61377 19.2961C5.5446 23.0743 9.46577 25.6666 14 25.6666Z" fill="#4CAF50"/>
<path d="M25.4398 11.7151H24.5V11.6667H14V16.3333H20.5934C20.1333 17.6262 19.3045 18.756 18.2093 19.5831L18.2111 19.5819L21.8219 22.6374C21.5664 22.8696 25.6667 19.8333 25.6667 14C25.6667 13.2177 25.5862 12.4542 25.4398 11.7151Z" fill="#1976D2"/>
</svg>
