<svg width="17" height="18" viewBox="0 0 17 18" fill="none" xmlns="http://www.w3.org/2000/svg">
<path d="M6.9942 13.7844L8.04608 16.7273M6.9942 13.7844L4.80277 13.2459M6.9942 13.7844L8.3341 11.9686M2.54873 1.41175L2.97449 2.5889M3.73836 10.2905L5.92979 10.8415L7.28221 9.0257M2.68648 7.34763L4.8779 7.88611L6.21781 6.08281M1.62207 4.40473L3.8135 4.94322L5.16592 3.12739M11.9781 13.033L11.2769 15.8507M11.9781 13.033L10.5631 11.4802M11.9781 13.033L13.9442 12.3318M14.9084 1.19886L14.6329 2.32592M11.2643 8.66254L12.6669 10.2154L14.6454 9.50157M11.9656 5.84487L13.3681 7.39772L15.3467 6.68391M12.6669 3.02721L14.0694 4.58005L16.0479 3.86625" stroke="black" stroke-width="1.25227" stroke-linecap="round" stroke-linejoin="round"/>
</svg>
