<svg width="53" height="16" viewBox="0 0 53 16" fill="none" xmlns="http://www.w3.org/2000/svg">
<path fill-rule="evenodd" clip-rule="evenodd" d="M17.1222 8.3196L17.2988 7.31415C17.2988 7.31415 15.9389 6.87247 14.832 7.69159V11.7138H16.0074V8.44592C16.4758 8.06849 17.1222 8.3196 17.1222 8.3196Z" fill="#03435F"/>
<mask id="mask0_45_1236" style="mask-type:luminance" maskUnits="userSpaceOnUse" x="14" y="7" width="4" height="5">
<path d="M14.832 7.69154C15.3646 7.29752 15.9557 7.19522 16.4258 7.1953C16.9327 7.1953 17.2989 7.31417 17.2989 7.31417L17.1222 8.31963C17.1222 8.31963 16.4758 8.06852 16.0074 8.44588V11.7137H14.832V7.69154Z" fill="#03435F"/>
</mask>
<g mask="url(#mask0_45_1236)">
<path fill-rule="evenodd" clip-rule="evenodd" d="M-56.7168 24.18L108.805 24.18L108.805 -210.31H-56.7168L-56.7168 24.18Z" fill="#03435F"/>
</g>
<mask id="mask1_45_1236" style="mask-type:luminance" maskUnits="userSpaceOnUse" x="14" y="7" width="4" height="5">
<path d="M14.832 7.69154C15.3646 7.29752 15.9557 7.1953 16.4258 7.1953C16.9327 7.1953 17.2989 7.31417 17.2989 7.31417L17.1222 8.31963C17.1222 8.31963 16.4758 8.06852 16.0074 8.44588V11.7137H14.832V7.69154Z" fill="#03435F"/>
</mask>
<g mask="url(#mask1_45_1236)">
<path fill-rule="evenodd" clip-rule="evenodd" d="M12.8613 13.6843H19.2692V5.22478H12.8613V13.6843Z" fill="#03435F"/>
</g>
<path fill-rule="evenodd" clip-rule="evenodd" d="M6.98926 6.16745L8.16409 5.94611V7.25425H9.32663V8.30038H8.16409V9.86048C8.16409 10.1263 8.20706 10.3372 8.29494 10.4932C8.38181 10.6517 8.55603 10.7302 8.81766 10.7302C8.94559 10.7302 9.07407 10.7179 9.2096 10.6919C9.3413 10.6654 9.46409 10.6314 9.5746 10.5869L9.74083 11.5668C9.59863 11.6278 9.44145 11.6808 9.26816 11.7256C9.09432 11.7701 8.88089 11.7933 8.62871 11.7933C8.30814 11.7933 8.04321 11.7465 7.83254 11.6538C7.62295 11.5611 7.45442 11.431 7.32878 11.265C7.20315 11.1005 7.11481 10.8986 7.06523 10.6621C7.01473 10.4261 6.98926 10.1655 6.98926 9.87798V6.16745Z" fill="#03435F"/>
<mask id="mask2_45_1236" style="mask-type:luminance" maskUnits="userSpaceOnUse" x="6" y="5" width="4" height="7">
<path d="M6.98926 6.16744L8.16409 5.9461V7.25424H9.32664V8.30037H8.16409V9.86047C8.16409 10.1263 8.20706 10.3372 8.29486 10.4932C8.38173 10.6517 8.55595 10.7302 8.81758 10.7302C8.94551 10.7302 9.07392 10.7179 9.20952 10.6919C9.34122 10.6654 9.46409 10.6314 9.5746 10.5869L9.74076 11.5668C9.59863 11.6279 9.44137 11.6808 9.26808 11.7257C9.09425 11.7701 8.88082 11.7932 8.62863 11.7932C8.30799 11.7932 8.04313 11.7465 7.83255 11.6538C7.62287 11.5611 7.45426 11.431 7.3287 11.2651C7.20307 11.1005 7.11481 10.8985 7.06523 10.6621C7.01466 10.4261 6.98926 10.1655 6.98926 9.87797V6.16744Z" fill="#03435F"/>
</mask>
<g mask="url(#mask2_45_1236)">
<path fill-rule="evenodd" clip-rule="evenodd" d="M-56.7168 24.18L108.805 24.18L108.805 -210.31H-56.7168L-56.7168 24.18Z" fill="#03435F"/>
</g>
<mask id="mask3_45_1236" style="mask-type:luminance" maskUnits="userSpaceOnUse" x="6" y="5" width="4" height="7">
<path d="M6.98926 6.16744L8.16409 5.9461V7.25424H9.32664V8.30037H8.16409V9.86047C8.16409 10.1263 8.20706 10.3372 8.29486 10.4932C8.38173 10.6517 8.55595 10.7302 8.81758 10.7302C8.94551 10.7302 9.07392 10.7179 9.20952 10.6919C9.34122 10.6654 9.46409 10.6314 9.5746 10.5869L9.74076 11.5668C9.59863 11.6279 9.44137 11.6808 9.26808 11.7257C9.09425 11.7701 8.88082 11.7932 8.62863 11.7932C8.30799 11.7932 8.04313 11.7465 7.83255 11.6538C7.62287 11.5611 7.45426 11.431 7.3287 11.2651C7.20307 11.1005 7.11481 10.8985 7.06523 10.6621C7.01466 10.4261 6.98926 10.1655 6.98926 9.87797V6.16744Z" fill="#03435F"/>
</mask>
<g mask="url(#mask3_45_1236)">
<path fill-rule="evenodd" clip-rule="evenodd" d="M5.01855 13.7638H11.7111V3.97554H5.01855L5.01855 13.7638Z" fill="#03435F"/>
</g>
<path fill-rule="evenodd" clip-rule="evenodd" d="M19.0385 10.813C19.2534 10.813 19.4054 10.7893 19.4957 10.7449C19.5853 10.7 19.6288 10.612 19.6288 10.4834C19.6288 10.3817 19.5721 10.2933 19.4559 10.2181C19.3398 10.1415 19.1651 10.0564 18.9281 9.95939C18.7443 9.88609 18.5772 9.8105 18.4265 9.73244C18.2778 9.65301 18.1503 9.56031 18.045 9.45009C17.9401 9.34043 17.8589 9.20888 17.8004 9.0557C17.7418 8.90527 17.714 8.72323 17.714 8.5085C17.714 8.09276 17.8589 7.76314 18.1475 7.52146C18.4364 7.28078 18.8322 7.15784 19.3375 7.15784C19.5901 7.15784 19.8318 7.18194 20.0632 7.23067C20.2942 7.27795 20.4788 7.3319 20.6143 7.38624L20.4098 8.36514C20.2729 8.31456 20.1242 8.27013 19.9641 8.23137C19.804 8.19169 19.6236 8.17082 19.4243 8.17082C19.0565 8.17082 18.8723 8.28148 18.8723 8.50044C18.8723 8.55102 18.8803 8.59599 18.8964 8.63521C18.9124 8.67496 18.9437 8.7128 18.9899 8.74918C19.0385 8.78517 19.1018 8.82577 19.184 8.86744C19.2656 8.91142 19.3695 8.95677 19.4957 9.00834C19.752 9.1105 19.965 9.20981 20.1332 9.31011C20.3017 9.41034 20.4339 9.51586 20.5317 9.63306C20.6289 9.74756 20.6979 9.87435 20.7366 10.0152C20.7754 10.1557 20.7956 10.3179 20.7956 10.5028C20.7956 10.9412 20.6417 11.2727 20.3352 11.4968C20.0273 11.7201 19.5919 11.8326 19.0295 11.8326C18.6622 11.8326 18.3562 11.8 18.112 11.7315C17.867 11.6648 17.6979 11.6071 17.6035 11.5626L17.8004 10.542C17.9992 10.6262 18.2061 10.6915 18.4148 10.7407C18.6263 10.7889 18.8322 10.813 19.0385 10.813Z" fill="#03435F"/>
<mask id="mask4_45_1236" style="mask-type:luminance" maskUnits="userSpaceOnUse" x="17" y="7" width="4" height="5">
<path d="M18.1485 7.52152C18.4375 7.28077 18.8332 7.15782 19.3384 7.15782C19.5911 7.15782 19.8329 7.18192 20.0643 7.23065C20.2951 7.27793 20.4798 7.3318 20.6153 7.38622L20.4109 8.36512C20.2739 8.31454 20.1252 8.27011 19.9651 8.23135C19.805 8.19159 19.6246 8.17087 19.4254 8.17087C19.0575 8.17087 18.8733 8.28139 18.8733 8.50042C18.8733 8.551 18.8813 8.59597 18.8974 8.63519C18.9135 8.67494 18.9447 8.71278 18.991 8.74916C19.0395 8.78515 19.1029 8.82575 19.185 8.86742C19.2667 8.91132 19.3705 8.95683 19.4967 9.00833C19.7531 9.11048 19.9661 9.20979 20.1341 9.31009C20.3027 9.41032 20.435 9.51577 20.5327 9.63304C20.63 9.74754 20.6989 9.87426 20.7377 10.0152C20.7764 10.1557 20.7966 10.3178 20.7966 10.5028C20.7966 10.9412 20.6426 11.2727 20.3363 11.4968C20.0284 11.7201 19.593 11.8326 19.0306 11.8326C18.6632 11.8326 18.3572 11.8 18.1131 11.7314C17.868 11.6647 17.699 11.6071 17.6045 11.5626L17.8014 10.542C18.0003 10.6263 18.207 10.6914 18.4158 10.7407C18.6273 10.7888 18.8332 10.813 19.0395 10.813C19.2544 10.813 19.4065 10.7894 19.4967 10.7449C19.5864 10.7 19.6298 10.612 19.6298 10.4834C19.6298 10.3817 19.5732 10.2933 19.457 10.2181C19.3408 10.1415 19.1661 10.0564 18.9291 9.95937C18.7453 9.88607 18.5783 9.81048 18.4275 9.73242C18.2789 9.65299 18.1513 9.56029 18.0461 9.45007C17.9412 9.34033 17.86 9.20886 17.8014 9.05568C17.7429 8.90518 17.715 8.72321 17.715 8.50848C17.715 8.09282 17.86 7.76319 18.1485 7.52152Z" fill="#03435F"/>
</mask>
<g mask="url(#mask4_45_1236)">
<path fill-rule="evenodd" clip-rule="evenodd" d="M-56.7168 24.18L108.805 24.18L108.805 -210.31H-56.7168L-56.7168 24.18Z" fill="#03435F"/>
</g>
<mask id="mask5_45_1236" style="mask-type:luminance" maskUnits="userSpaceOnUse" x="17" y="7" width="4" height="5">
<path d="M18.1485 7.52152C18.4375 7.28077 18.8332 7.15782 19.3384 7.15782C19.5911 7.15782 19.8329 7.18192 20.0643 7.23065C20.2951 7.27793 20.4798 7.3318 20.6153 7.38622L20.4109 8.36512C20.2739 8.31454 20.1252 8.27011 19.9651 8.23135C19.805 8.19159 19.6246 8.17087 19.4254 8.17087C19.0575 8.17087 18.8733 8.28139 18.8733 8.50042C18.8733 8.551 18.8813 8.59597 18.8974 8.63519C18.9135 8.67494 18.9447 8.71278 18.991 8.74916C19.0395 8.78515 19.1029 8.82575 19.185 8.86742C19.2667 8.91132 19.3705 8.95683 19.4967 9.00833C19.7531 9.11048 19.9661 9.20979 20.1341 9.31009C20.3027 9.41032 20.435 9.51577 20.5327 9.63304C20.63 9.74754 20.6989 9.87426 20.7377 10.0152C20.7764 10.1557 20.7966 10.3178 20.7966 10.5028C20.7966 10.9412 20.6426 11.2727 20.3363 11.4968C20.0284 11.7201 19.593 11.8326 19.0306 11.8326C18.6632 11.8326 18.3572 11.8 18.1131 11.7314C17.868 11.6647 17.699 11.6071 17.6045 11.5626L17.8014 10.542C18.0003 10.6263 18.207 10.6914 18.4158 10.7407C18.6273 10.7888 18.8332 10.813 19.0395 10.813C19.2544 10.813 19.4065 10.7894 19.4967 10.7449C19.5864 10.7 19.6298 10.612 19.6298 10.4834C19.6298 10.3817 19.5732 10.2933 19.457 10.2181C19.3408 10.1415 19.1661 10.0564 18.9291 9.95937C18.7453 9.88607 18.5783 9.81048 18.4275 9.73242C18.2789 9.65299 18.1513 9.56029 18.0461 9.45007C17.9412 9.34033 17.86 9.20886 17.8014 9.05568C17.7429 8.90518 17.715 8.72321 17.715 8.50848C17.715 8.09282 17.86 7.76319 18.1485 7.52152Z" fill="#03435F"/>
</mask>
<g mask="url(#mask5_45_1236)">
<path fill-rule="evenodd" clip-rule="evenodd" d="M15.6338 13.8031H22.767V5.18729H15.6338V13.8031Z" fill="#03435F"/>
</g>
<path fill-rule="evenodd" clip-rule="evenodd" d="M24.417 9.1666C24.3117 9.59415 24.2007 10.0198 24.0822 10.4407C23.9641 10.863 23.8385 11.2877 23.7087 11.7152H22.794C22.6991 11.4787 22.5957 11.1978 22.4852 10.872C22.3737 10.5447 22.26 10.1895 22.1405 9.8032C22.0223 9.41817 21.9016 9.01057 21.7778 8.57926C21.6536 8.14986 21.5332 7.71571 21.418 7.27634H22.6561C22.6972 7.47826 22.7439 7.70013 22.7944 7.93889C22.8445 8.17818 22.8974 8.42461 22.9527 8.6781C23.0079 8.93068 23.0669 9.18455 23.1273 9.44089C23.1883 9.69721 23.2507 9.94266 23.3138 10.1787C23.3824 9.93137 23.4494 9.6788 23.5151 9.42009C23.5798 9.16099 23.6435 8.9065 23.7044 8.65638C23.7644 8.40665 23.8234 8.16406 23.8772 7.93044C23.932 7.69721 23.9807 7.47826 24.0237 7.27634H24.8741C24.9175 7.47826 24.9633 7.69721 25.0166 7.93044C25.0686 8.16406 25.1239 8.40665 25.1824 8.65638C25.2391 8.9065 25.3009 9.16099 25.3628 9.42009C25.4265 9.6788 25.4917 9.93137 25.5593 10.1787C25.623 9.94266 25.6863 9.69721 25.75 9.44089C25.8138 9.18455 25.8737 8.93068 25.9285 8.6781C25.9833 8.42461 26.0362 8.17818 26.0872 7.93889C26.1377 7.70013 26.1835 7.47826 26.2255 7.27634H27.4476C27.3315 7.71571 27.212 8.14986 27.0878 8.57926C26.9627 9.01057 26.8432 9.41817 26.7237 9.8032C26.6061 10.1895 26.49 10.5447 26.3771 10.872C26.2633 11.1978 26.1584 11.4787 26.065 11.7152H25.1504C25.0181 11.2877 24.8897 10.863 24.7631 10.4407C24.637 10.0198 24.5227 9.59415 24.417 9.1666Z" fill="#03435F"/>
<mask id="mask6_45_1236" style="mask-type:luminance" maskUnits="userSpaceOnUse" x="21" y="7" width="7" height="5">
<path d="M26.2255 7.27634H27.4476C27.3315 7.71571 27.212 8.14986 27.0877 8.57918C26.9627 9.01057 26.8432 9.41824 26.7237 9.8032C26.6061 10.1895 26.49 10.5447 26.377 10.872C26.2633 11.1978 26.1584 11.4787 26.065 11.7152H25.1503C25.0181 11.2877 24.8897 10.8629 24.7631 10.4406C24.637 10.0198 24.5227 9.59415 24.417 9.1666C24.3116 9.59415 24.2006 10.0198 24.0822 10.4406C23.9641 10.8629 23.8385 11.2877 23.7086 11.7152H22.794C22.699 11.4787 22.5956 11.1978 22.4851 10.872C22.3737 10.5447 22.2599 10.1895 22.1405 9.8032C22.0223 9.41824 21.9015 9.01057 21.7778 8.57918C21.6536 8.14986 21.5332 7.71571 21.418 7.27634H22.656C22.6972 7.47826 22.7439 7.70005 22.7944 7.93889C22.8445 8.17818 22.8973 8.42461 22.9527 8.67803C23.0078 8.9306 23.0669 9.18455 23.1273 9.44089C23.1883 9.69721 23.2507 9.94266 23.3138 10.1787C23.3823 9.93137 23.4494 9.67873 23.515 9.42009C23.5797 9.16099 23.6435 8.9065 23.7044 8.65638C23.7643 8.40657 23.8234 8.16398 23.8772 7.93044C23.932 7.69721 23.9807 7.47826 24.0236 7.27634H24.8741C24.9174 7.47826 24.9633 7.69721 25.0166 7.93044C25.0686 8.16398 25.1239 8.40657 25.1824 8.65638C25.2391 8.9065 25.3009 9.16099 25.3628 9.42009C25.4265 9.67873 25.4917 9.93137 25.5592 10.1787C25.623 9.94266 25.6862 9.69721 25.75 9.44089C25.8138 9.18455 25.8737 8.9306 25.9285 8.67803C25.9833 8.42461 26.0362 8.17818 26.0871 7.93889C26.1377 7.70005 26.1835 7.47826 26.2255 7.27634Z" fill="#03435F"/>
</mask>
<g mask="url(#mask6_45_1236)">
<path fill-rule="evenodd" clip-rule="evenodd" d="M-56.7168 24.18L108.805 24.18L108.805 -210.31H-56.7168L-56.7168 24.18Z" fill="#03435F"/>
</g>
<mask id="mask7_45_1236" style="mask-type:luminance" maskUnits="userSpaceOnUse" x="21" y="7" width="7" height="5">
<path d="M26.2255 7.27634H27.4476C27.3315 7.71571 27.212 8.14986 27.0877 8.57918C26.9627 9.01057 26.8432 9.41824 26.7237 9.8032C26.6061 10.1895 26.49 10.5447 26.377 10.872C26.2633 11.1978 26.1584 11.4787 26.065 11.7152H25.1503C25.0181 11.2877 24.8897 10.8629 24.7631 10.4406C24.637 10.0198 24.5227 9.59415 24.417 9.1666C24.3116 9.59415 24.2006 10.0198 24.0822 10.4406C23.9641 10.8629 23.8385 11.2877 23.7086 11.7152H22.794C22.699 11.4787 22.5956 11.1978 22.4851 10.872C22.3737 10.5447 22.2599 10.1895 22.1405 9.8032C22.0223 9.41824 21.9015 9.01057 21.7778 8.57918C21.6536 8.14986 21.5332 7.71571 21.418 7.27634H22.656C22.6972 7.47826 22.7439 7.70005 22.7944 7.93889C22.8445 8.17818 22.8973 8.42461 22.9527 8.67803C23.0078 8.9306 23.0669 9.18455 23.1273 9.44089C23.1883 9.69721 23.2507 9.94266 23.3138 10.1787C23.3823 9.93137 23.4494 9.67873 23.515 9.42009C23.5797 9.16099 23.6435 8.9065 23.7044 8.65638C23.7643 8.40657 23.8234 8.16398 23.8772 7.93044C23.932 7.69721 23.9807 7.47826 24.0236 7.27634H24.8741C24.9174 7.47826 24.9633 7.69721 25.0166 7.93044C25.0686 8.16398 25.1239 8.40657 25.1824 8.65638C25.2391 8.9065 25.3009 9.16099 25.3628 9.42009C25.4265 9.67873 25.4917 9.93137 25.5592 10.1787C25.623 9.94266 25.6862 9.69721 25.75 9.44089C25.8138 9.18455 25.8737 8.9306 25.9285 8.67803C25.9833 8.42461 26.0362 8.17818 26.0871 7.93889C26.1377 7.70005 26.1835 7.47826 26.2255 7.27634Z" fill="#03435F"/>
</mask>
<g mask="url(#mask7_45_1236)">
<path fill-rule="evenodd" clip-rule="evenodd" d="M19.4473 13.6857H29.4179V5.30585H19.4473V13.6857Z" fill="#03435F"/>
</g>
<path fill-rule="evenodd" clip-rule="evenodd" d="M28.2783 11.7135H29.4513V7.27554H28.2783V11.7135Z" fill="#03435F"/>
<mask id="mask8_45_1236" style="mask-type:luminance" maskUnits="userSpaceOnUse" x="28" y="7" width="2" height="5">
<path d="M28.2783 11.7135V7.27561H29.4514V11.7135H28.2783Z" fill="#03435F"/>
</mask>
<g mask="url(#mask8_45_1236)">
<path fill-rule="evenodd" clip-rule="evenodd" d="M-56.7168 24.18L108.805 24.18L108.805 -210.31H-56.7168L-56.7168 24.18Z" fill="#03435F"/>
</g>
<mask id="mask9_45_1236" style="mask-type:luminance" maskUnits="userSpaceOnUse" x="28" y="7" width="2" height="5">
<path d="M28.2783 11.7135V7.27561H29.4514V11.7135H28.2783Z" fill="#03435F"/>
</mask>
<g mask="url(#mask9_45_1236)">
<path fill-rule="evenodd" clip-rule="evenodd" d="M26.3076 13.684H31.4216V5.305H26.3076V13.684Z" fill="#03435F"/>
</g>
<path fill-rule="evenodd" clip-rule="evenodd" d="M30.3838 6.1688L31.5577 5.94608V7.27778H32.7194V8.32199H31.5577V9.88362C31.5577 10.1479 31.6011 10.3608 31.6876 10.5164C31.774 10.6739 31.9491 10.7529 32.2113 10.7529C32.3383 10.7529 32.4686 10.7415 32.6018 10.7155C32.7363 10.6899 32.8582 10.6535 32.9691 10.6096L33.134 11.5885C32.9918 11.6509 32.8336 11.7039 32.6613 11.7492C32.4869 11.7937 32.276 11.8164 32.0228 11.8164C31.7018 11.8164 31.4368 11.7701 31.2267 11.6764C31.0161 11.5852 30.848 11.4561 30.7224 11.2886C30.5968 11.1241 30.509 10.9212 30.4585 10.6862C30.4074 10.4492 30.3838 10.1872 30.3838 9.90104V6.1688Z" fill="#03435F"/>
<mask id="mask10_45_1236" style="mask-type:luminance" maskUnits="userSpaceOnUse" x="30" y="5" width="4" height="7">
<path d="M30.3848 6.1688L31.5586 5.94608V7.27778H32.7203V8.32199H31.5586V9.88362C31.5586 10.1479 31.6021 10.3607 31.6885 10.5164C31.7749 10.6739 31.9501 10.7528 32.2122 10.7528C32.3392 10.7528 32.4696 10.7415 32.6027 10.7155C32.7373 10.6898 32.8591 10.6535 32.97 10.6096L33.1349 11.5885C32.9928 11.6509 32.8345 11.7039 32.6623 11.7492C32.4879 11.7937 32.2769 11.8164 32.0238 11.8164C31.7027 11.8164 31.4377 11.7701 31.2277 11.6764C31.017 11.5851 30.8489 11.4561 30.7234 11.2887C30.5977 11.1241 30.5099 10.9212 30.4594 10.6862C30.4084 10.4492 30.3848 10.1872 30.3848 9.90112V6.1688Z" fill="#03435F"/>
</mask>
<g mask="url(#mask10_45_1236)">
<path fill-rule="evenodd" clip-rule="evenodd" d="M-56.7158 24.18L108.806 24.18L108.806 -210.31H-56.7158L-56.7158 24.18Z" fill="#03435F"/>
</g>
<mask id="mask11_45_1236" style="mask-type:luminance" maskUnits="userSpaceOnUse" x="30" y="5" width="4" height="7">
<path d="M30.3848 6.1688L31.5586 5.94608V7.27778H32.7203V8.32199H31.5586V9.88362C31.5586 10.1479 31.6021 10.3607 31.6885 10.5164C31.7749 10.6739 31.9501 10.7528 32.2122 10.7528C32.3392 10.7528 32.4696 10.7415 32.6027 10.7155C32.7373 10.6898 32.8591 10.6535 32.97 10.6096L33.1349 11.5885C32.9928 11.6509 32.8345 11.7039 32.6623 11.7492C32.4879 11.7937 32.2769 11.8164 32.0238 11.8164C31.7027 11.8164 31.4377 11.7701 31.2277 11.6764C31.017 11.5851 30.8489 11.4561 30.7234 11.2887C30.5977 11.1241 30.5099 10.9212 30.4594 10.6862C30.4084 10.4492 30.3848 10.1872 30.3848 9.90112V6.1688Z" fill="#03435F"/>
</mask>
<g mask="url(#mask11_45_1236)">
<path fill-rule="evenodd" clip-rule="evenodd" d="M28.4141 13.7869H35.1053V3.97552H28.4141V13.7869Z" fill="#03435F"/>
</g>
<path fill-rule="evenodd" clip-rule="evenodd" d="M33.5498 9.49681C33.5498 9.17563 33.5985 8.87302 33.6958 8.58928C33.793 8.30456 33.9333 8.05775 34.117 7.8463C34.3012 7.63495 34.524 7.46841 34.7875 7.34408C35.0496 7.22159 35.349 7.1582 35.6852 7.1582C35.9057 7.1582 36.1083 7.18046 36.2924 7.22205C36.4767 7.2651 36.6561 7.3252 36.8284 7.40317L36.5848 8.40724C36.4738 8.36273 36.3533 8.32397 36.2212 8.28898C36.0899 8.25583 35.9421 8.23841 35.7797 8.23841C35.4331 8.23841 35.1738 8.35422 35.0042 8.58499C34.8319 8.8163 34.7478 9.11945 34.7478 9.49681C34.7478 9.89543 34.8276 10.2052 34.9892 10.4247C35.1478 10.6436 35.4283 10.7538 35.8273 10.7538C35.9695 10.7538 36.121 10.7391 36.2849 10.7112C36.4474 10.6828 36.597 10.6384 36.7349 10.576L36.8993 11.606C36.7622 11.668 36.5923 11.72 36.3874 11.7658C36.1815 11.8104 35.9562 11.8335 35.7098 11.8335C35.3315 11.8335 35.0048 11.772 34.7322 11.6514C34.4594 11.5308 34.2341 11.3662 34.0584 11.1581C33.8813 10.9496 33.7539 10.7037 33.6722 10.4199C33.5905 10.1357 33.5498 9.82744 33.5498 9.49681Z" fill="#03435F"/>
<mask id="mask12_45_1236" style="mask-type:luminance" maskUnits="userSpaceOnUse" x="33" y="7" width="4" height="5">
<path d="M34.7855 7.34411C35.0476 7.22162 35.347 7.15823 35.6832 7.15823C35.9037 7.15823 36.1063 7.18041 36.2905 7.222C36.4746 7.26513 36.6542 7.32515 36.8265 7.4032L36.5829 8.40719C36.4718 8.36276 36.3514 8.324 36.2192 8.28901C36.0878 8.25578 35.9401 8.23836 35.7776 8.23836C35.4311 8.23836 35.1718 8.35424 35.0023 8.58502C34.8299 8.81625 34.7459 9.1194 34.7459 9.49684C34.7459 9.89545 34.8258 10.2052 34.9872 10.4247C35.1459 10.6437 35.4263 10.7539 35.8253 10.7539C35.9675 10.7539 36.1191 10.7391 36.2829 10.7113C36.4454 10.6829 36.5951 10.6384 36.7329 10.576L36.8973 11.6061C36.7604 11.668 36.5904 11.7199 36.3854 11.7658C36.1796 11.8104 35.9543 11.8335 35.7078 11.8335C35.3294 11.8335 35.0028 11.772 34.7303 11.6513C34.4574 11.5308 34.2321 11.3662 34.0564 11.1582C33.8795 10.9496 33.7519 10.7038 33.6703 10.4199C33.5885 10.1357 33.5479 9.82739 33.5479 9.49684C33.5479 9.17565 33.5966 8.87304 33.6938 8.58931C33.7911 8.30459 33.9314 8.0577 34.115 7.84625C34.2992 7.6349 34.5221 7.46843 34.7855 7.34411Z" fill="#03435F"/>
</mask>
<g mask="url(#mask12_45_1236)">
<path fill-rule="evenodd" clip-rule="evenodd" d="M-56.7178 24.18L108.804 24.18L108.804 -210.31H-56.7178L-56.7178 24.18Z" fill="#03435F"/>
</g>
<mask id="mask13_45_1236" style="mask-type:luminance" maskUnits="userSpaceOnUse" x="33" y="7" width="4" height="5">
<path d="M34.7855 7.34411C35.0476 7.22162 35.347 7.15823 35.6832 7.15823C35.9037 7.15823 36.1063 7.18041 36.2905 7.222C36.4746 7.26513 36.6542 7.32515 36.8265 7.4032L36.5829 8.40719C36.4718 8.36276 36.3514 8.324 36.2192 8.28901C36.0878 8.25578 35.9401 8.23836 35.7776 8.23836C35.4311 8.23836 35.1718 8.35424 35.0023 8.58502C34.8299 8.81625 34.7459 9.1194 34.7459 9.49684C34.7459 9.89545 34.8258 10.2052 34.9872 10.4247C35.1459 10.6437 35.4263 10.7539 35.8253 10.7539C35.9675 10.7539 36.1191 10.7391 36.2829 10.7113C36.4454 10.6829 36.5951 10.6384 36.7329 10.576L36.8973 11.6061C36.7604 11.668 36.5904 11.7199 36.3854 11.7658C36.1796 11.8104 35.9543 11.8335 35.7078 11.8335C35.3294 11.8335 35.0028 11.772 34.7303 11.6513C34.4574 11.5308 34.2321 11.3662 34.0564 11.1582C33.8795 10.9496 33.7519 10.7038 33.6703 10.4199C33.5885 10.1357 33.5479 9.82739 33.5479 9.49684C33.5479 9.17565 33.5966 8.87304 33.6938 8.58931C33.7911 8.30459 33.9314 8.0577 34.115 7.84625C34.2992 7.6349 34.5221 7.46843 34.7855 7.34411Z" fill="#03435F"/>
</mask>
<g mask="url(#mask13_45_1236)">
<path fill-rule="evenodd" clip-rule="evenodd" d="M31.5781 13.8041H38.8685V5.18769H31.5781V13.8041Z" fill="#03435F"/>
</g>
<path fill-rule="evenodd" clip-rule="evenodd" d="M37.6572 11.7136V6.16715L38.8316 5.94635V7.29417C38.91 7.26623 39.0106 7.2393 39.1353 7.21381C39.258 7.18872 39.3784 7.17544 39.4937 7.17544C39.8294 7.17544 40.1084 7.2251 40.3322 7.32303C40.5552 7.42141 40.7351 7.56094 40.8682 7.74107C41.0033 7.92034 41.0968 8.135 41.153 8.38143C41.2073 8.62963 41.2346 8.90591 41.2346 9.20953V11.7136H40.0607V9.36033C40.0607 8.95549 40.0121 8.66893 39.9153 8.49916C39.818 8.33216 39.6377 8.24759 39.3756 8.24759C39.2689 8.24759 39.1715 8.25756 39.079 8.27644C38.9874 8.29632 38.9048 8.31804 38.8316 8.34029V11.7136H37.6572Z" fill="#03435F"/>
<mask id="mask14_45_1236" style="mask-type:luminance" maskUnits="userSpaceOnUse" x="37" y="5" width="5" height="7">
<path d="M37.6592 6.16714L38.8335 5.94634V7.29424C38.9119 7.26622 39.0125 7.23929 39.1372 7.2138C39.26 7.18871 39.3804 7.17551 39.4956 7.17551C39.8313 7.17551 40.1105 7.22517 40.3342 7.32302C40.5571 7.42148 40.7371 7.56094 40.8702 7.74113C41.0052 7.92034 41.0988 8.13499 41.155 8.3815C41.2092 8.6297 41.2366 8.90591 41.2366 9.20959V11.7136H40.0627V9.36033C40.0627 8.95556 40.014 8.66892 39.9173 8.49916C39.82 8.33223 39.6396 8.24758 39.3775 8.24758C39.2708 8.24758 39.1735 8.25755 39.081 8.27651C38.9893 8.29631 38.9068 8.31803 38.8335 8.34029V11.7136H37.6592V6.16714Z" fill="#03435F"/>
</mask>
<g mask="url(#mask14_45_1236)">
<path fill-rule="evenodd" clip-rule="evenodd" d="M-56.7158 24.18L108.806 24.18L108.806 -210.31H-56.7158L-56.7158 24.18Z" fill="#03435F"/>
</g>
<mask id="mask15_45_1236" style="mask-type:luminance" maskUnits="userSpaceOnUse" x="37" y="5" width="5" height="7">
<path d="M37.6592 6.16714L38.8335 5.94634V7.29424C38.9119 7.26622 39.0125 7.23929 39.1372 7.2138C39.26 7.18871 39.3804 7.17551 39.4956 7.17551C39.8313 7.17551 40.1105 7.22517 40.3342 7.32302C40.5571 7.42148 40.7371 7.56094 40.8702 7.74113C41.0052 7.92034 41.0988 8.13499 41.155 8.3815C41.2092 8.6297 41.2366 8.90591 41.2366 9.20959V11.7136H40.0627V9.36033C40.0627 8.95556 40.014 8.66892 39.9173 8.49916C39.82 8.33223 39.6396 8.24758 39.3775 8.24758C39.2708 8.24758 39.1735 8.25755 39.081 8.27651C38.9893 8.29631 38.9068 8.31803 38.8335 8.34029V11.7136H37.6592V6.16714Z" fill="#03435F"/>
</mask>
<g mask="url(#mask15_45_1236)">
<path fill-rule="evenodd" clip-rule="evenodd" d="M35.6885 13.6842H43.2069V3.97578H35.6885V13.6842Z" fill="#03435F"/>
</g>
<path fill-rule="evenodd" clip-rule="evenodd" d="M2.25098 11.715L2.25098 7.69329C2.25098 7.69329 2.84123 7.18868 4.13225 7.18868C5.30709 7.18868 5.95221 7.81723 5.95221 9.20051V11.715H4.77877V9.20051C4.77877 8.31946 4.36695 8.25845 4.01514 8.25845C3.66334 8.25845 3.42773 8.44571 3.42773 8.44571V11.715H2.25098Z" fill="#03435F"/>
<mask id="mask16_45_1236" style="mask-type:luminance" maskUnits="userSpaceOnUse" x="2" y="7" width="4" height="5">
<path d="M2.25293 7.69329C2.25293 7.69329 2.84318 7.18868 4.13421 7.18868C5.30904 7.18868 5.95409 7.81715 5.95409 9.20058V11.715H4.78072V9.20058C4.78072 8.31938 4.3689 8.25844 4.01709 8.25844C3.66529 8.25844 3.42968 8.44578 3.42968 8.44578V11.715H2.25293L2.25293 7.69329Z" fill="#03435F"/>
</mask>
<g mask="url(#mask16_45_1236)">
<path fill-rule="evenodd" clip-rule="evenodd" d="M-56.7158 24.18L108.806 24.18L108.806 -210.31H-56.7158L-56.7158 24.18Z" fill="#03435F"/>
</g>
<mask id="mask17_45_1236" style="mask-type:luminance" maskUnits="userSpaceOnUse" x="2" y="7" width="4" height="5">
<path d="M2.25293 7.69329C2.25293 7.69329 2.84318 7.18868 4.13421 7.18868C5.30904 7.18868 5.95409 7.81715 5.95409 9.20058V11.715H4.78072V9.20058C4.78072 8.31938 4.3689 8.25844 4.01709 8.25844C3.66529 8.25844 3.42968 8.44578 3.42968 8.44578V11.715H2.25293L2.25293 7.69329Z" fill="#03435F"/>
</mask>
<g mask="url(#mask17_45_1236)">
<path fill-rule="evenodd" clip-rule="evenodd" d="M0.282227 13.6856H7.92432L7.92432 5.21824H0.282227L0.282227 13.6856Z" fill="#03435F"/>
</g>
<path fill-rule="evenodd" clip-rule="evenodd" d="M0.0400391 11.7151L0.0400391 6.16766L1.21488 5.9463L1.21488 11.7151H0.0400391Z" fill="#03435F"/>
<mask id="mask18_45_1236" style="mask-type:luminance" maskUnits="userSpaceOnUse" x="0" y="5" width="2" height="7">
<path d="M0.0390625 6.16773L1.2139 5.94629L1.2139 11.7151H0.0390625L0.0390625 6.16773Z" fill="#03435F"/>
</mask>
<g mask="url(#mask18_45_1236)">
<path fill-rule="evenodd" clip-rule="evenodd" d="M-56.7178 24.18L108.804 24.18L108.804 -210.31H-56.7178L-56.7178 24.18Z" fill="#03435F"/>
</g>
<mask id="mask19_45_1236" style="mask-type:luminance" maskUnits="userSpaceOnUse" x="0" y="5" width="2" height="7">
<path d="M0.0390625 6.16773L1.2139 5.94629L1.2139 11.7151H0.0390625L0.0390625 6.16773Z" fill="#03435F"/>
</mask>
<g mask="url(#mask19_45_1236)">
<path fill-rule="evenodd" clip-rule="evenodd" d="M-1.93066 13.6856H3.18523L3.18523 3.97585H-1.93066L-1.93066 13.6856Z" fill="#03435F"/>
</g>
<path fill-rule="evenodd" clip-rule="evenodd" d="M13.9136 9.81458H11.2711C11.2711 9.81458 11.3301 10.7571 12.5036 10.7571C13.0911 10.7571 13.6785 10.5693 13.6785 10.5693L13.796 11.5761C13.796 11.5761 13.2091 11.8254 12.3874 11.8254C11.2121 11.8254 10.1553 11.1978 10.1553 9.43814C10.1553 8.05433 10.9769 7.17566 12.1514 7.17566C13.9136 7.17566 14.0317 9.05878 13.9136 9.81458ZM12.0937 8.05433C11.3301 8.05433 11.2711 8.93392 11.2711 8.93392H12.9144C12.9144 8.93392 12.8568 8.05433 12.0937 8.05433Z" fill="#03435F"/>
<mask id="mask20_45_1236" style="mask-type:luminance" maskUnits="userSpaceOnUse" x="10" y="7" width="4" height="5">
<path d="M10.1533 9.43811C10.1533 8.0543 10.975 7.17563 12.1493 7.17563C13.9116 7.17563 14.0296 9.05883 13.9116 9.81455H11.2691C11.2691 9.81455 11.3282 10.7571 12.5015 10.7571C13.089 10.7571 13.6764 10.5693 13.6764 10.5693L13.794 11.5761C13.794 11.5761 13.2071 11.8255 12.3854 11.8255C11.2101 11.8255 10.1533 11.1978 10.1533 9.43811ZM12.0917 8.0543C11.3282 8.0543 11.2691 8.93397 11.2691 8.93397H12.9124C12.9124 8.93397 12.8548 8.0543 12.0917 8.0543Z" fill="#03435F"/>
</mask>
<g mask="url(#mask20_45_1236)">
<path fill-rule="evenodd" clip-rule="evenodd" d="M-56.7178 24.18L108.804 24.18L108.804 -210.31H-56.7178L-56.7178 24.18Z" fill="#03435F"/>
</g>
<mask id="mask21_45_1236" style="mask-type:luminance" maskUnits="userSpaceOnUse" x="10" y="7" width="4" height="5">
<path d="M10.1533 9.43811C10.1533 8.0543 10.975 7.17563 12.1493 7.17563C13.9116 7.17563 14.0296 9.05883 13.9116 9.81455H11.2691C11.2691 9.81455 11.3282 10.7571 12.5015 10.7571C13.089 10.7571 13.6764 10.5693 13.6764 10.5693L13.794 11.5761C13.794 11.5761 13.2071 11.8255 12.3854 11.8255C11.2101 11.8255 10.1533 11.1978 10.1533 9.43811ZM12.0917 8.0543C11.3282 8.0543 11.2691 8.93397 11.2691 8.93397H12.9124C12.9124 8.93397 12.8548 8.0543 12.0917 8.0543Z" fill="#03435F"/>
</mask>
<g mask="url(#mask21_45_1236)">
<path fill-rule="evenodd" clip-rule="evenodd" d="M8.18359 13.7959H15.9158V5.20511H8.18359V13.7959Z" fill="#03435F"/>
</g>
<mask id="mask22_45_1236" style="mask-type:luminance" maskUnits="userSpaceOnUse" x="42" y="5" width="9" height="11">
<path d="M42.791 5.9474C42.791 5.67925 46.1686 5.10058 48.4339 5.10058C49.4162 5.10058 50.1893 5.20941 50.387 5.49951C51.407 6.84641 44.2266 15.2965 43.6283 15.0402C43.1485 14.912 47.4565 9.53352 46.7384 7.35577C46.3799 6.20419 42.791 6.33229 42.791 5.9474Z" fill="#ED342B"/>
</mask>
<g mask="url(#mask22_45_1236)">
<path fill-rule="evenodd" clip-rule="evenodd" d="M40.8203 17.0165H52.4563V3.13009H40.8203V17.0165Z" fill="#ED342B"/>
</g>
<mask id="mask23_45_1236" style="mask-type:luminance" maskUnits="userSpaceOnUse" x="48" y="0" width="5" height="5">
<path d="M48.8936 2.61823C48.8936 1.69843 49.5901 0.954067 50.4486 0.954067C51.3079 0.954067 52.0035 1.69843 52.0035 2.61823C52.0035 3.5385 51.3079 4.28286 50.4486 4.28286C49.5901 4.28286 48.8936 3.5385 48.8936 2.61823Z" fill="#ED342B"/>
</mask>
<g mask="url(#mask23_45_1236)">
<path fill-rule="evenodd" clip-rule="evenodd" d="M46.9229 6.25343H53.9738V-1.01651H46.9229V6.25343Z" fill="#ED342B"/>
</g>
</svg>
