<svg width="34" height="33" viewBox="0 0 34 33" fill="none" xmlns="http://www.w3.org/2000/svg">
<path fill-rule="evenodd" clip-rule="evenodd" d="M17.1016 0C26.2145 0 33.6016 7.38705 33.6016 16.5C33.6016 25.6129 26.2145 33 17.1016 33C7.98861 33 0.601562 25.6129 0.601562 16.5C0.601562 7.38705 7.98861 0 17.1016 0ZM17.9266 18.15H7.69656C7.25896 18.15 6.83927 18.3238 6.52984 18.6333C6.2204 18.9427 6.04656 19.3624 6.04656 19.8C6.04656 20.2376 6.2204 20.6573 6.52984 20.9667C6.83927 21.2762 7.25896 21.45 7.69656 21.45H8.54466L8.07111 22.2931C7.96516 22.4823 7.89749 22.6905 7.87199 22.9058C7.84649 23.1211 7.86365 23.3393 7.92248 23.548C7.98132 23.7567 8.08068 23.9518 8.21489 24.122C8.34911 24.2923 8.51555 24.4345 8.70471 24.5404C8.89387 24.6464 9.10206 24.7141 9.31737 24.7396C9.53268 24.7651 9.7509 24.7479 9.95959 24.6891C10.1683 24.6302 10.3633 24.5309 10.5336 24.3967C10.7039 24.2625 10.8461 24.096 10.952 23.9069L12.3265 21.45H17.9266C18.3642 21.45 18.7839 21.2762 19.0933 20.9667C19.4027 20.6573 19.5766 20.2376 19.5766 19.8C19.5766 19.3624 19.4027 18.9427 19.0933 18.6333C18.7839 18.3238 18.3642 18.15 17.9266 18.15ZM21.05 13.2181C20.847 12.8455 20.5083 12.5654 20.1042 12.436C19.7001 12.3066 19.2617 12.3379 18.88 12.5233C18.4984 12.7087 18.2028 13.034 18.0548 13.4317C17.9067 13.8293 17.9175 14.2687 18.085 14.6586L18.1708 14.8319L23.2528 23.9069C23.4586 24.2738 23.7968 24.5482 24.1982 24.6741C24.5997 24.7999 25.034 24.7677 25.4125 24.5839C25.791 24.4002 26.0849 24.0788 26.2343 23.6855C26.3837 23.2922 26.3772 22.8567 26.2162 22.4681L26.1304 22.2931L25.6585 21.4517H26.5066C26.9297 21.455 27.3379 21.2957 27.6469 21.0066C27.9559 20.7175 28.142 20.3208 28.1668 19.8983C28.1916 19.4759 28.0531 19.0602 27.7801 18.7369C27.507 18.4137 27.1202 18.2077 26.6996 18.1616L26.5066 18.15H23.8105L21.05 13.2181ZM16.892 5.79315C16.689 5.42053 16.3503 5.14043 15.9462 5.01103C15.5421 4.88164 15.1037 4.91289 14.722 5.09831C14.3404 5.28372 14.0448 5.60904 13.8968 6.00668C13.7487 6.40433 13.7595 6.84373 13.927 7.2336L14.0111 7.40685L15.2107 9.5469L12.2291 14.8698C12.0217 15.2373 11.9629 15.6704 12.065 16.0799C12.167 16.4894 12.4221 16.8442 12.7778 17.0714C13.1335 17.2986 13.5627 17.3809 13.9772 17.3013C14.3916 17.2217 14.7598 16.9863 15.0061 16.6435L15.11 16.4818L20.192 7.40685C20.4023 7.03921 20.4631 6.6048 20.3619 6.19354C20.2607 5.78229 20.0053 5.42569 19.6485 5.19756C19.2917 4.96943 18.8608 4.88725 18.445 4.96801C18.0293 5.04878 17.6605 5.28632 17.4151 5.63145L17.3111 5.79315L17.1016 6.171L16.892 5.79645V5.79315Z" fill="black"/>
</svg>
