<svg width="16" height="16" viewBox="0 0 16 16" fill="none" xmlns="http://www.w3.org/2000/svg">
<path d="M15.074 0.182987C10.0657 4.44701 7.32891 11.4151 6.57909 15.5182H9.18988C10.2582 11.3766 10.9188 6.6093 15.074 0.182953L15.074 0.182987ZM2.11819 1.95588C3.88976 4.07905 5.57735 6.43409 6.92247 8.69365C7.16423 9.0998 7.3988 9.51019 7.62607 9.92463C7.89815 9.25814 8.19241 8.60093 8.50836 7.95408C6.75639 5.54575 4.67207 3.38948 2.11816 1.95591L2.11819 1.95588ZM15.3445 6.47703C13.6003 8.04916 12.6783 10.3468 12.2815 12.9232C12.7472 13.7967 13.1843 14.6575 13.5979 15.4886H14.9292C14.0755 13.0725 14.5391 9.99908 15.3445 6.47703ZM1.73359 6.99579C4.20048 9.47275 5.81771 13.3725 4.44162 15.4748H5.9631C6.11504 14.6255 6.34651 13.6614 6.66254 12.6263C6.03897 9.77647 3.91167 7.07998 1.73359 6.99589V6.99579ZM0.62207 9.96899C2.41471 12.7055 2.70835 14.1942 2.00621 15.4665H4.28842C3.8455 13.0314 3.22528 11.5341 0.62207 9.96902V9.96899ZM10.797 11.5105C10.4369 12.909 10.1482 14.2302 9.82278 15.5086H12.9239C12.2766 14.2142 11.5742 12.8582 10.797 11.5105Z" fill="black"/>
</svg>
