<svg width="18" height="19" viewBox="0 0 18 19" fill="none" xmlns="http://www.w3.org/2000/svg">
<g clip-path="url(#clip0_332_453)">
<path fill-rule="evenodd" clip-rule="evenodd" d="M6.08954 -4.89845C6.54395 -5.35287 7.32078 -5.03117 7.32078 -4.3885V-3.81651H7.89277C8.53544 -3.81651 8.85714 -3.03968 8.40272 -2.58527L7.75608 -1.93863C7.75173 -1.9342 7.74728 -1.92987 7.74274 -1.92565L8.98913 0.183053C9.13663 0.432646 9.35591 0.632005 9.61839 0.755135C9.88086 0.878266 10.1743 0.919454 10.4606 0.87333L14.9975 0.1423C15.5854 0.0474496 15.9857 0.72258 15.6207 1.19322C15.2709 1.64439 15.0945 2.22107 14.9672 2.8522C14.4919 5.20686 12.4975 7.02163 10.0256 7.32024V8.08481H10.9272V8.80611H7.50111V8.08481H9.30434V7.36352C7.3518 7.36352 5.62214 6.42332 4.57735 4.98037C3.7392 3.82269 3.87553 2.33503 4.21454 1.09729L4.39305 0.446325C4.48386 0.115057 4.50608 -0.231265 4.45833 -0.571419L4.43561 -0.570698H3.50298C2.86031 -0.570698 2.53861 -1.34753 2.99303 -1.80194L6.08954 -4.89845ZM7.89277 -3.09522L7.36406 -2.56651L7.10079 -3.01119C7.06722 -3.06807 7.03024 -3.12287 6.99007 -3.17529C7.08925 -3.12407 7.20141 -3.09522 7.32078 -3.09522H7.89277ZM6.59949 -3.81651C6.59949 -3.69606 6.62906 -3.58209 6.68136 -3.48256C6.48018 -3.63539 6.24641 -3.73968 5.99829 -3.7873L6.59949 -4.3885V-3.81651ZM3.50298 -1.29199L4.07821 -1.86722C4.09264 -1.79185 4.11283 -1.71683 4.1388 -1.64182L4.25926 -1.29199H3.50298ZM4.82078 -1.87696C4.74717 -2.09203 4.75588 -2.32674 4.84524 -2.53576C4.9346 -2.74478 5.09826 -2.91326 5.30459 -3.00864C5.51093 -3.10403 5.74529 -3.11955 5.96241 -3.05222C6.17952 -2.98488 6.36397 -2.83946 6.48012 -2.64405L8.36846 0.550191C8.58974 0.924449 8.91862 1.22337 9.31226 1.408C9.70589 1.59262 10.146 1.65439 10.5753 1.58525L14.9564 0.879461C14.5662 1.44099 14.3833 2.09953 14.2603 2.70974C14.1625 3.19224 13.9899 3.65647 13.7486 4.08561C13.7146 4.10714 13.6845 4.1342 13.6595 4.16567C12.9768 5.02401 11.9652 5.56029 10.8421 5.56029C8.81891 5.56029 7.14046 3.80611 7.14046 1.59318C7.14046 1.49753 7.10246 1.4058 7.03483 1.33816C6.96719 1.27053 6.87546 1.23253 6.77981 1.23253C6.68416 1.23253 6.59243 1.27053 6.5248 1.33816C6.45716 1.4058 6.41917 1.49753 6.41917 1.59318C6.41917 4.16098 8.3782 6.28158 10.8421 6.28158C10.9864 6.28158 11.1285 6.27437 11.2691 6.25994C10.6452 6.51356 9.97786 6.6434 9.30434 6.64223C7.58658 6.64223 6.07295 5.81599 5.16159 4.55769C4.52469 3.67808 4.58456 2.47568 4.91022 1.28807L5.08874 0.636746C5.26147 0.00663185 5.23998 -0.660949 5.02707 -1.27865L4.82078 -1.87696Z" fill="black"/>
</g>
<defs>
<clipPath id="clip0_332_453">
<rect width="17.311" height="17.311" fill="white" transform="translate(0.62207 0.863846)"/>
</clipPath>
</defs>
</svg>
