<svg width="45" height="69" viewBox="0 0 45 69" fill="none" xmlns="http://www.w3.org/2000/svg">
<path d="M37.7895 1.60681C35.4657 3.49883 35.8903 7.39586 35.8903 7.39586C35.8903 7.39586 35.9256 7.41546 35.9749 7.44198C33.8304 8.78057 31.8634 10.5146 30.0906 12.4839C29.7348 12.8817 29.3947 13.2979 29.0546 13.7141C29.4653 12.9958 29.7831 12.0815 29.6985 11.015C29.4867 8.3459 26.82 5.41967 26.82 5.41967C26.82 5.41967 24.6542 8.86243 24.8651 11.5304C25.0751 14.1995 27.6089 15.4205 27.6089 15.4205C27.6089 15.4205 27.7687 15.2994 27.9982 15.0735C27.2029 16.1457 26.4549 17.2629 25.7552 18.4194C25.8342 17.9432 25.851 17.4313 25.7608 16.8917C25.3018 14.1384 22.2607 11.4197 22.2607 11.4197C22.2607 11.4197 20.3188 15.266 20.7778 18.0158C21.1997 20.5385 23.5327 21.5531 23.9211 21.7065C23.2196 23.0843 22.5729 24.5001 21.969 25.9402C21.9987 25.3533 21.9467 24.7365 21.7432 24.1116C21.0436 21.9451 18.7653 20.1119 17.6838 19.3394C18.9158 18.3917 19.8859 16.8156 19.8859 16.8156C19.8859 16.8156 17.3948 15.2591 15.6657 15.7306C13.9375 16.2034 13.406 18.5842 13.406 18.5842C13.406 18.5842 14.7904 20.4405 16.5196 19.969C16.6329 19.939 16.7426 19.8767 16.8522 19.8294C16.7844 20.0912 16.711 20.4002 16.6366 20.7461C15.7586 20.444 14.1131 20.0139 12.9442 20.5212C12.1712 20.8579 11.7075 21.5624 11.4232 22.2242C12.3654 19.773 13.5565 17.4486 15.0469 15.3502C15.4854 15.4378 17.655 15.7641 18.9084 14.015C20.3105 12.0631 20.212 8.01269 20.212 8.01269C20.212 8.01269 16.7714 8.62723 15.3702 10.5804C13.9691 12.5335 14.9623 15.334 14.9623 15.334C14.9623 15.334 14.9911 15.3409 15.0339 15.349C13.6708 16.8479 12.5085 18.6015 11.5301 20.4832C11.3294 20.874 11.1417 21.273 10.9586 21.673C11.1463 21.0354 11.2365 20.271 10.9828 19.4813C10.3631 17.5454 7.86924 15.997 7.86924 15.997C7.86924 15.997 6.85648 19.0673 7.47808 21.0032C8.09874 22.939 10.194 23.2514 10.194 23.2514C10.194 23.2514 10.2952 23.1166 10.429 22.8906C10.0165 23.889 9.64855 24.9117 9.32521 25.9528C9.30477 25.5678 9.24159 25.1723 9.07434 24.778C8.25577 22.8387 5.52316 21.5312 5.52316 21.5312C5.52316 21.5312 4.74454 24.8483 5.56404 26.7887C6.32965 28.6035 8.292 28.7776 8.5438 28.7915C8.25855 29.9928 8.02162 31.2069 7.82186 32.4291C7.74474 31.9771 7.6063 31.5217 7.34056 31.0939C6.15033 29.1742 2.99031 28.3418 2.99031 28.3418C2.99031 28.3418 2.67441 32.0924 3.86278 34.0121C4.97496 35.8049 7.13522 35.5778 7.41861 35.5398C7.26902 36.9418 7.14916 38.3484 7.08133 39.7562C7.07297 39.9649 7.07576 40.1712 7.06832 40.3788C6.96612 39.7319 6.73476 39.0667 6.27855 38.496C4.81422 36.6581 1.40241 36.2615 1.40241 36.2615C1.40241 36.2615 1.48696 40.2496 2.95129 42.0875C4.41655 43.9241 6.89086 43.1459 6.89086 43.1459C6.89086 43.1459 6.95868 42.9153 7.02372 42.5498C7.01443 43.8503 7.02651 45.1497 7.07576 46.4457C7.17518 48.6732 7.32941 50.8927 7.58679 53.0994C7.83022 55.3039 8.15728 57.4969 8.54938 59.669C8.63021 60.0968 8.71383 60.5222 8.79839 60.9465C7.98353 59.759 7.21792 58.5299 6.50805 57.2651C4.93594 54.4277 3.63514 51.408 2.71715 48.2351C1.79358 45.0667 1.26675 41.7496 1.14039 38.3864C1.01774 35.0198 1.31321 31.6254 1.86233 28.2357C0.737143 31.4283 0.101608 34.8895 0.0142688 38.3934C-0.0897952 41.8972 0.377564 45.438 1.34387 48.7735C2.31111 52.1125 3.76429 55.2428 5.58355 58.0215C6.48761 59.4189 7.48737 60.7217 8.55588 61.9335C8.7445 62.1422 8.93776 62.3439 9.13009 62.548C9.38932 63.7459 9.67178 64.9335 10.0035 66.1072C9.83252 65.0603 9.67457 64.0134 9.52776 62.9631C10.3203 63.7725 11.1454 64.5311 12.0392 65.1779C11.4214 64.4769 10.8388 63.7459 10.2729 63.0023C10.5526 61.6314 10.9057 60.2986 11.3257 59.0038C11.7363 57.7021 12.2214 56.4454 12.7612 55.2301C13.6244 53.3243 14.6585 51.5441 15.8673 49.9507C15.7874 50.5537 15.6908 51.1532 15.6229 51.7574C15.334 54.1752 15.1407 56.6022 14.9958 59.0326C14.4959 60.8578 14.0703 62.7175 13.8975 64.6164C14.1781 63.5119 14.507 62.4327 14.8694 61.3708C14.7765 63.9131 14.7338 66.46 14.8499 69C15.0404 66.1349 15.2968 63.2813 15.6202 60.4415C15.6796 59.8927 15.754 59.3474 15.819 58.7997C16.5316 56.978 17.3363 55.2105 18.2013 53.4914C19.9797 50.0072 22.0498 46.7408 24.3764 43.7397C24.5474 43.5194 24.7295 43.3108 24.9004 43.0928C26.362 42.5106 27.8737 42.0517 29.4235 41.6816C28.2509 41.6182 27.0663 41.6862 25.8909 41.8753C27.8068 39.5959 29.8658 37.4791 32.0465 35.5225C34.8144 33.0471 37.7737 30.8472 40.8408 28.7903C37.5191 30.2154 34.3405 32.1327 31.3868 34.4594C28.4618 36.7446 25.7692 39.4541 23.3906 42.4991C22.9864 42.6317 22.5822 42.7585 22.1846 42.9234C20.6552 43.546 19.2085 44.4545 17.878 45.5613C18.0081 44.9042 18.1233 44.2435 18.2645 43.5898C18.5414 42.2604 18.8387 40.9356 19.1555 39.619C19.7493 40.0386 22.0805 41.5064 24.2203 40.2024C26.6946 38.6908 28.2834 33.8599 28.2834 33.8599C28.2834 33.8599 23.9639 32.6274 21.4886 34.1343C21.0055 34.4283 20.6199 34.8134 20.3068 35.24C20.762 33.597 21.2768 31.9783 21.8222 30.3745C22.0405 30.5924 24.2714 32.7288 26.6175 31.7015C29.0881 30.6201 31.056 26.301 31.056 26.301C31.056 26.301 27.1304 24.5635 24.6598 25.645C23.9434 25.9575 23.4073 26.4867 23.0003 27.077C23.6349 25.4133 24.3337 23.7864 25.0909 22.1976C25.0231 22.3971 24.9924 22.5182 24.9924 22.5182C24.9924 22.5182 26.7866 25.1204 29.1522 24.5866C31.5159 24.0528 33.8546 20.5155 33.8546 20.5155C33.8546 20.5155 30.5478 18.2556 28.184 18.7895C27.175 19.0178 26.4493 19.7291 25.9448 20.4705C26.0451 20.2722 26.1408 20.0727 26.243 19.8767C27.0644 18.3237 27.9638 16.8248 28.932 15.3848C28.644 15.8909 28.5046 16.2829 28.5046 16.2829C28.5046 16.2829 29.9968 18.9578 32.2918 18.7122C34.5849 18.4678 37.1001 15.3629 37.1001 15.3629C37.1001 15.3629 34.1408 12.8425 31.8458 13.0892C30.8627 13.1953 30.1101 13.7983 29.5694 14.4532C31.4332 11.8244 33.5638 9.44122 35.9898 7.44659C36.5119 7.72791 39.1321 8.99733 41.2162 7.30132C43.5409 5.41391 44.602 0.308574 44.602 0.308574C44.602 0.308574 40.1161 -0.285204 37.7895 1.60681ZM13.0409 36.1393C13.157 36.3987 13.2945 36.6259 13.4413 36.8403C12.4564 36.9325 10.1206 37.2865 8.89409 38.6101C8.58468 38.9433 8.36448 39.3226 8.20652 39.7147C8.26041 38.383 8.36262 37.0571 8.48991 35.7346C8.59398 35.7934 10.679 36.9452 12.2882 35.594C12.4378 35.4694 12.5772 35.3195 12.7101 35.1616C12.7993 35.504 12.9043 35.8349 13.0409 36.1393ZM12.4787 30.559C11.5487 30.6696 10.5108 30.9371 9.78049 31.5493C9.31035 31.9448 9.00466 32.4544 8.80489 32.9802C8.9805 31.645 9.21929 30.3249 9.49246 29.0163C9.48595 29.0947 9.4841 29.1454 9.4841 29.1454C9.4841 29.1454 11.006 30.4102 12.5512 29.8591C12.5252 30.0793 12.5001 30.3111 12.4787 30.559ZM21.8705 44.5779C20.0782 47.1467 18.4977 49.9149 17.2099 52.8585C16.8773 53.6114 16.5762 54.385 16.2836 55.1609C16.4304 54.0933 16.5781 53.0268 16.7416 51.9649C16.9451 50.699 17.1579 49.4353 17.38 48.1763C18.7216 46.7454 20.2343 45.5452 21.8705 44.5779ZM15.8673 47.4914C14.0713 49.5287 12.6757 52.0133 11.7401 54.6732C11.2615 56.0003 10.9038 57.3804 10.6455 58.7755C10.4058 60.1694 10.2367 61.5864 10.2757 63C9.96818 62.5964 9.67085 62.1883 9.37724 61.7744C9.28061 61.0365 9.17934 60.2997 9.09386 59.5595C8.83184 57.3735 8.62464 55.1817 8.45739 52.9899C8.30501 50.7935 8.174 48.5983 8.13591 46.4019C8.11175 45.3481 8.10339 44.2931 8.10989 43.2404C8.62278 43.4134 10.6121 43.9553 11.9788 42.4818C13.2025 41.1605 13.682 38.4867 13.8362 37.3488C15.3572 39.0148 17.6615 39.0252 17.6615 39.0252C17.6615 39.0252 17.8139 38.7635 18.0015 38.3334C17.6095 39.9556 17.2462 41.5871 16.9284 43.2289C16.6905 44.5087 16.4731 45.7954 16.2687 47.0821C16.1377 47.2216 15.9946 47.3461 15.8673 47.4914ZM18.6928 35.6285C18.7523 34.78 18.6585 33.8564 18.2552 32.9617C17.3902 31.0432 15.2634 29.587 13.9365 28.826C15.0357 27.5232 15.7289 25.5747 15.7289 25.5747C15.7289 25.5747 12.8764 24.6673 11.2123 25.6219C10.4987 26.0289 10.0908 26.7299 9.8446 27.4021C9.88548 27.2315 9.91429 27.0574 9.9561 26.8891C10.2971 25.5389 10.7078 24.2096 11.1779 22.9079C11.0516 23.3552 11.0135 23.6838 11.0135 23.6838C11.0135 23.6838 12.5893 25.3222 14.2515 24.6004C15.0645 24.2488 15.7958 23.3783 16.3328 22.5781C16.1851 23.8556 16.1711 25.2542 16.5391 26.3898C17.3976 29.044 20.1126 29.6308 20.5279 29.7058C19.9314 31.4018 19.386 33.1197 18.8898 34.8549C18.8192 35.1086 18.7616 35.3714 18.6928 35.6285Z" fill="#38B419"/>
</svg>
