<svg width="22" height="18" viewBox="0 0 22 18" fill="none" xmlns="http://www.w3.org/2000/svg">
<g clip-path="url(#clip0_45_1211)">
<path d="M4.05478 17.3236V16.2107C4.05478 15.784 3.79504 15.5059 3.34984 15.5059C3.12729 15.5059 2.88614 15.58 2.71918 15.8212C2.5894 15.6171 2.40394 15.5059 2.1257 15.5059C1.94015 15.5059 1.75477 15.5614 1.60631 15.7655V15.5429H1.2168V17.3236H1.60631V16.3405C1.60631 16.0252 1.77327 15.8768 2.03301 15.8768C2.29257 15.8768 2.42252 16.0437 2.42252 16.3405V17.3236H2.81204V16.3405C2.81204 16.0252 2.99742 15.8768 3.23857 15.8768C3.4983 15.8768 3.62808 16.0437 3.62808 16.3405V17.3236H4.05478ZM9.82325 15.5429H9.19268V15.0051H8.80316V15.5429H8.45074V15.8953H8.80308V16.7115C8.80308 17.1196 8.97004 17.3607 9.41523 17.3607C9.58219 17.3607 9.76757 17.3051 9.89753 17.2309L9.78616 16.897C9.67488 16.9711 9.5451 16.9897 9.45233 16.9897C9.26686 16.9897 9.19268 16.8785 9.19268 16.6929V15.8953H9.82325V15.5429ZM13.1249 15.5058C12.9024 15.5058 12.754 15.6171 12.6612 15.7655V15.5429H12.2717V17.3236H12.6612V16.322C12.6612 16.0252 12.791 15.8583 13.0322 15.8583C13.1063 15.8583 13.1991 15.8769 13.2733 15.8954L13.3846 15.5244C13.3104 15.5059 13.1991 15.5059 13.1249 15.5059V15.5058ZM8.13541 15.6913C7.94986 15.5614 7.69021 15.5059 7.41197 15.5059C6.96686 15.5059 6.67011 15.7284 6.67011 16.0808C6.67011 16.3777 6.89267 16.5445 7.28219 16.6002L7.46765 16.6188C7.6717 16.6558 7.78298 16.7115 7.78298 16.8043C7.78298 16.9341 7.63461 17.0268 7.37488 17.0268C7.11523 17.0268 6.91117 16.9341 6.78131 16.8414L6.59584 17.1381C6.7999 17.2865 7.07814 17.3607 7.35629 17.3607C7.87567 17.3607 8.1725 17.1196 8.1725 16.7857C8.1725 16.4703 7.93135 16.3034 7.56034 16.2478L7.37488 16.2292C7.20792 16.2106 7.07813 16.1736 7.07813 16.0623C7.07813 15.9325 7.20792 15.8583 7.41197 15.8583C7.63461 15.8583 7.85717 15.951 7.96845 16.0066L8.13541 15.6913ZM18.4855 15.5059C18.2628 15.5059 18.1145 15.6171 18.0217 15.7655V15.5429H17.6322V17.3236H18.0217V16.322C18.0217 16.0252 18.1516 15.8583 18.3926 15.8583C18.4669 15.8583 18.5597 15.8769 18.6339 15.8954L18.7451 15.5244C18.6709 15.5059 18.5597 15.5059 18.4855 15.5059ZM13.5145 16.4333C13.5145 16.9711 13.8854 17.3607 14.4604 17.3607C14.7201 17.3607 14.9056 17.3051 15.091 17.1567L14.9056 16.8414C14.7572 16.9526 14.6088 17.0082 14.4419 17.0082C14.1265 17.0082 13.904 16.7857 13.904 16.4333C13.904 16.0994 14.1265 15.8768 14.4419 15.8583C14.6088 15.8583 14.7572 15.9139 14.9056 16.0252L15.091 15.7099C14.9056 15.5614 14.7201 15.5059 14.4604 15.5059C13.8854 15.5059 13.5145 15.8954 13.5145 16.4333ZM17.1129 16.4333V15.5429H16.7234V15.7655C16.5935 15.5986 16.408 15.5059 16.1669 15.5059C15.6661 15.5059 15.2766 15.8954 15.2766 16.4333C15.2766 16.9711 15.6661 17.3607 16.1669 17.3607C16.4265 17.3607 16.6121 17.268 16.7234 17.101V17.3236H17.1129V16.4333ZM15.6846 16.4333C15.6846 16.1179 15.8886 15.8583 16.2225 15.8583C16.5378 15.8583 16.7605 16.0994 16.7605 16.4333C16.7605 16.7486 16.5378 17.0082 16.2225 17.0082C15.8886 16.9896 15.6846 16.7486 15.6846 16.4333ZM11.029 15.5059C10.5096 15.5059 10.1386 15.8768 10.1386 16.4333C10.1386 16.9897 10.5095 17.3607 11.0475 17.3607C11.3071 17.3607 11.5669 17.2865 11.7709 17.1196L11.5854 16.8414C11.437 16.9526 11.2515 17.0268 11.0661 17.0268C10.8249 17.0268 10.5838 16.9155 10.5281 16.6001H11.8451V16.4518C11.8637 15.8768 11.5299 15.5059 11.029 15.5059ZM11.029 15.8397C11.27 15.8397 11.4371 15.9881 11.4741 16.2664H10.5467C10.5838 16.0252 10.7507 15.8397 11.029 15.8397ZM20.6927 16.4333V14.8381H20.3032V15.7655C20.1733 15.5986 19.9879 15.5059 19.7467 15.5059C19.2459 15.5059 18.8564 15.8954 18.8564 16.4333C18.8564 16.9711 19.2459 17.3607 19.7467 17.3607C20.0065 17.3607 20.1919 17.268 20.3032 17.101V17.3236H20.6927V16.4333ZM19.2645 16.4333C19.2645 16.1179 19.4685 15.8583 19.8024 15.8583C20.1177 15.8583 20.3403 16.0994 20.3403 16.4333C20.3403 16.7486 20.1177 17.0082 19.8024 17.0082C19.4685 16.9896 19.2645 16.7486 19.2645 16.4333ZM6.24342 16.4333V15.5429H5.8539V15.7655C5.72404 15.5986 5.53857 15.5059 5.29743 15.5059C4.79663 15.5059 4.40712 15.8954 4.40712 16.4333C4.40712 16.9711 4.79663 17.3607 5.29743 17.3607C5.55716 17.3607 5.74263 17.268 5.8539 17.101V17.3236H6.24342V16.4333ZM4.79663 16.4333C4.79663 16.1179 5.00068 15.8583 5.33452 15.8583C5.64985 15.8583 5.87249 16.0994 5.87249 16.4333C5.87249 16.7486 5.64985 17.0082 5.33452 17.0082C5.00068 16.9896 4.79663 16.7486 4.79663 16.4333Z" fill="black"/>
<path d="M8.00488 2.02106H13.8476V12.5195H8.00488V2.02106Z" fill="#FF5F00"/>
<path d="M8.37619 7.27032C8.37619 5.13728 9.37778 3.24529 10.9173 2.02106C9.78589 1.13075 8.35769 0.592861 6.79962 0.592861C3.10834 0.592861 0.12207 3.57913 0.12207 7.27032C0.12207 10.9614 3.10834 13.9478 6.79953 13.9478C8.3576 13.9478 9.7858 13.4099 10.9173 12.5195C9.37778 11.3139 8.37619 9.40337 8.37619 7.27032Z" fill="#EB001B"/>
<path d="M21.7317 7.27032C21.7317 10.9614 18.7454 13.9478 15.0542 13.9478C13.4962 13.9478 12.068 13.4099 10.9365 12.5195C12.4946 11.2954 13.4777 9.40337 13.4777 7.27032C13.4777 5.13728 12.476 3.24529 10.9365 2.02106C12.0679 1.13075 13.4962 0.592861 15.0542 0.592861C18.7454 0.592861 21.7317 3.59772 21.7317 7.27032Z" fill="#F79E1B"/>
</g>
<defs>
<clipPath id="clip0_45_1211">
<rect width="21.6304" height="16.8143" fill="white" transform="translate(0.12207 0.592865)"/>
</clipPath>
</defs>
</svg>
