<svg width="14" height="13" viewBox="0 0 14 13" fill="none" xmlns="http://www.w3.org/2000/svg">
<path fill-rule="evenodd" clip-rule="evenodd" d="M4.12704 0.666667C4.31371 0.273333 4.71571 0 5.18171 0H7.84837C8.31371 0 8.71571 0.273333 8.90304 0.666667C9.35837 0.670667 9.71371 0.691333 10.031 0.815333C10.4099 0.963515 10.7393 1.21534 10.9817 1.542C11.2264 1.87067 11.341 2.29333 11.499 2.874L11.5237 2.96467L11.917 4.40933C12.1795 4.54128 12.4095 4.72981 12.5904 4.96133C13.005 5.49267 13.0784 6.12533 13.005 6.85067C12.933 7.55467 12.7117 8.44133 12.4344 9.55133L12.4164 9.62133C12.241 10.3233 12.0984 10.8933 11.9297 11.338C11.7524 11.802 11.5284 12.182 11.1584 12.4707C10.789 12.7593 10.3657 12.884 9.87304 12.944C9.40037 13 8.81304 13 8.08971 13H4.94037C4.21704 13 3.62904 13 3.15704 12.9433C2.66371 12.8847 2.24104 12.7593 1.87104 12.47C1.50171 12.182 1.27771 11.802 1.10037 11.338C0.93104 10.8933 0.78904 10.3233 0.613706 9.62133L0.595706 9.55133C0.318373 8.44133 0.096373 7.55467 0.0250397 6.85133C-0.0482937 6.12467 0.0250396 5.49267 0.43904 4.96133C0.627706 4.72 0.853706 4.54133 1.11237 4.40933L1.50571 2.96467L1.53104 2.874C1.68904 2.29333 1.80371 1.87067 2.04837 1.54133C2.29086 1.21492 2.6203 0.963331 2.99904 0.815333C3.31637 0.691333 3.67104 0.67 4.12704 0.666667ZM4.12771 1.668C3.68637 1.67267 3.50971 1.68933 3.36304 1.74667C3.15902 1.82645 2.98158 1.96207 2.85104 2.138C2.73371 2.296 2.66437 2.51667 2.47104 3.228L2.23504 4.09267C2.92704 4 3.82037 4 4.92971 4H8.09971C9.20971 4 10.103 4 10.7944 4.09267L10.559 3.228C10.365 2.51667 10.2964 2.296 10.179 2.138C10.0485 1.96207 9.87106 1.82645 9.66704 1.74667C9.52037 1.68933 9.34304 1.67267 8.90171 1.668C8.80695 1.86711 8.65771 2.03528 8.47129 2.15304C8.28486 2.2708 8.06888 2.33331 7.84837 2.33333H5.18171C4.9612 2.33331 4.74522 2.2708 4.55879 2.15304C4.37236 2.03528 4.22313 1.86711 4.12837 1.668H4.12771ZM5.18171 1C5.1375 1 5.09511 1.01756 5.06385 1.04882C5.0326 1.08007 5.01504 1.12246 5.01504 1.16667C5.01504 1.21087 5.0326 1.25326 5.06385 1.28452C5.09511 1.31577 5.1375 1.33333 5.18171 1.33333H7.84837C7.89258 1.33333 7.93497 1.31577 7.96622 1.28452C7.99748 1.25326 8.01504 1.21087 8.01504 1.16667C8.01504 1.12246 7.99748 1.08007 7.96622 1.04882C7.93497 1.01756 7.89258 1 7.84837 1H5.18171ZM2.31504 5.09067C1.70837 5.17867 1.41437 5.33867 1.22837 5.57733C1.04171 5.81533 0.958373 6.13867 1.02037 6.74933C1.08371 7.37333 1.28704 8.18933 1.57637 9.34933C1.76171 10.088 1.88971 10.6 2.03637 10.9827C2.17637 11.352 2.31437 11.5473 2.48771 11.6827C2.66037 11.8173 2.88304 11.9033 3.27637 11.9507C3.68304 11.9993 4.20971 12 4.97237 12H8.05904C8.82104 12 9.34904 11.9993 9.75504 11.9507C10.1484 11.904 10.371 11.8173 10.5437 11.6827C10.717 11.5473 10.8544 11.352 10.9957 10.9827C11.141 10.6 11.2697 10.088 11.4544 9.34933C11.7444 8.18933 11.9477 7.37333 12.0104 6.74933C12.073 6.13867 11.989 5.81467 11.803 5.57667C11.617 5.33867 11.323 5.17867 10.7157 5.09067C10.0957 5.00133 9.25437 5 8.05904 5H4.97237C3.77704 5 2.93571 5.00133 2.31571 5.09067H2.31504Z" fill="#A46E05"/>
</svg>
