<svg width="16" height="17" viewBox="0 0 16 17" fill="none" xmlns="http://www.w3.org/2000/svg">
<path d="M15.7303 2.46868C15.6621 1.92702 15.3983 1.42853 14.988 1.06627C14.5777 0.704007 14.0489 0.502728 13.5004 0.5H2.49958C1.95245 0.502445 1.42481 0.702468 1.0147 1.06291C0.60458 1.42334 0.339867 1.91969 0.269739 2.45973L0 4.67002C0.000357223 5.10369 0.093562 5.53231 0.273406 5.92732C0.453249 6.32233 0.715603 6.67466 1.04299 6.96085V14.2629C1.04299 14.8562 1.27981 15.4252 1.70136 15.8448C2.12291 16.2643 2.69465 16.5 3.29081 16.5H12.7047C13.3009 16.5 13.8726 16.2643 14.2941 15.8448C14.7157 15.4252 14.9525 14.8562 14.9525 14.2629V6.96085C15.2807 6.67507 15.5439 6.32292 15.7245 5.92789C15.9052 5.53286 15.9991 5.10403 16 4.67002L15.7303 2.46868ZM9.805 15.6051H6.20849V11.9541C6.20849 11.5981 6.35058 11.2567 6.60351 11.005C6.85644 10.7533 7.19948 10.6119 7.55718 10.6119H8.45631C8.814 10.6119 9.15705 10.7533 9.40998 11.005C9.66291 11.2567 9.805 11.5981 9.805 11.9541V15.6051ZM14.0579 14.2629C14.0579 14.6189 13.9158 14.9603 13.6629 15.212C13.4099 15.4637 13.0669 15.6051 12.7092 15.6051H10.7041V11.9541C10.7041 11.3608 10.4673 10.7918 10.0458 10.3722C9.62421 9.9527 9.05247 9.717 8.45631 9.717H7.55718C6.96102 9.717 6.38928 9.9527 5.96773 10.3722C5.54618 10.7918 5.30936 11.3608 5.30936 11.9541V15.6051H3.29081C2.93312 15.6051 2.59007 15.4637 2.33714 15.212C2.08421 14.9603 1.94212 14.6189 1.94212 14.2629V7.48881C2.29589 7.63288 2.6748 7.70587 3.05704 7.70358C3.49841 7.70562 3.93486 7.61133 4.33565 7.42735C4.73645 7.24336 5.09184 6.97416 5.37679 6.6387C5.4174 6.59848 5.47235 6.57591 5.52964 6.57591C5.58693 6.57591 5.64189 6.59848 5.6825 6.6387C5.96745 6.97416 6.32284 7.24336 6.72363 7.42735C7.12443 7.61133 7.56088 7.70562 8.00225 7.70358C8.44554 7.70545 8.88392 7.61116 9.28688 7.42725C9.68983 7.24335 10.0477 6.97426 10.3355 6.6387C10.3539 6.619 10.3761 6.60327 10.4009 6.59249C10.4256 6.58172 10.4523 6.57612 10.4793 6.57606C10.5077 6.57589 10.5359 6.58135 10.5621 6.5921C10.5883 6.60285 10.6122 6.6187 10.6322 6.6387C10.9172 6.97416 11.2725 7.24336 11.6733 7.42735C12.0741 7.61133 12.5106 7.70562 12.952 7.70358C13.3313 7.70588 13.7073 7.63286 14.0579 7.48881V14.2629ZM12.952 6.80872C12.6414 6.81017 12.3343 6.74451 12.0518 6.61627C11.7692 6.48804 11.518 6.30029 11.3155 6.066C11.2143 5.94557 11.0878 5.8487 10.9449 5.78222C10.8019 5.71574 10.6461 5.68126 10.4883 5.68121H10.4793C10.3222 5.67979 10.1667 5.71272 10.0238 5.77766C9.88086 5.8426 9.754 5.93797 9.65215 6.05705C9.4436 6.28343 9.19003 6.46418 8.90755 6.58783C8.62506 6.71149 8.31984 6.77534 8.01124 6.77534C7.70264 6.77534 7.39741 6.71149 7.11493 6.58783C6.83245 6.46418 6.57888 6.28343 6.37033 6.05705C6.2657 5.93898 6.13703 5.84441 5.99286 5.77964C5.84869 5.71487 5.69232 5.68137 5.53414 5.68137C5.37596 5.68137 5.21959 5.71487 5.07542 5.77964C4.93125 5.84441 4.80258 5.93898 4.69795 6.05705C4.41417 6.38661 4.0369 6.62309 3.61566 6.73542C3.19441 6.84775 2.74889 6.8307 2.33756 6.6865C1.92623 6.5423 1.56832 6.27769 1.31081 5.92741C1.0533 5.57712 0.908228 5.15753 0.894633 4.72371L1.16437 2.57606C1.20707 2.25151 1.36615 1.95324 1.61233 1.73618C1.85851 1.51913 2.1752 1.39791 2.50407 1.39485H13.5004C13.8302 1.39467 14.1487 1.51476 14.3955 1.73242C14.6424 1.95007 14.8005 2.2502 14.8401 2.57606L15.1009 4.68792C15.0957 5.25266 14.8664 5.79246 14.463 6.18971C14.0597 6.58696 13.5149 6.80946 12.9475 6.80872H12.952Z" fill="black"/>
</svg>
