<svg width="15" height="15" viewBox="0 0 15 15" fill="none" xmlns="http://www.w3.org/2000/svg">
<path d="M11.5521 14H3.01214C2.72991 14.0017 2.45052 13.9437 2.19233 13.8297C1.93413 13.7157 1.70298 13.5484 1.51408 13.3387C1.32517 13.129 1.18278 12.8817 1.09627 12.6131C1.00976 12.3445 0.98109 12.0605 1.01214 11.78L1.68214 5.89002C1.70933 5.6443 1.82658 5.41736 2.01125 5.253C2.19592 5.08864 2.43493 4.99852 2.68214 5.00002H11.8821C12.1294 4.99852 12.3684 5.08864 12.553 5.253C12.7377 5.41736 12.855 5.6443 12.8821 5.89002L13.5321 11.78C13.563 12.0589 13.5349 12.3411 13.4495 12.6083C13.3642 12.8756 13.2236 13.1219 13.0369 13.3313C12.8501 13.5406 12.6214 13.7084 12.3656 13.8236C12.1099 13.9388 11.8327 13.9989 11.5521 14Z" stroke="#A46E05" stroke-linecap="round" stroke-linejoin="round"/>
<path d="M3.28223 5C3.28223 3.93913 3.70365 2.92172 4.4538 2.17157C5.20394 1.42143 6.22136 1 7.28223 1C8.34309 1 9.36051 1.42143 10.1107 2.17157C10.8608 2.92172 11.2822 3.93913 11.2822 5M4.78223 8H9.78223" stroke="#A46E05" stroke-linecap="round" stroke-linejoin="round"/>
</svg>
