<svg width="14" height="13" viewBox="0 0 14 13" fill="none" xmlns="http://www.w3.org/2000/svg">
<path d="M13.2328 5.23831C13.2457 5.15158 13.2413 5.06317 13.2199 4.97814C13.1985 4.89311 13.1606 4.81313 13.1083 4.74278C13.0559 4.67244 12.9902 4.6131 12.915 4.56818C12.8397 4.52325 12.7563 4.49362 12.6695 4.48098L8.90217 3.93031L7.21817 0.498975C7.15738 0.39409 7.07008 0.307034 6.96503 0.246537C6.85998 0.18604 6.74087 0.154229 6.61964 0.154297C6.49841 0.154365 6.37934 0.186307 6.27435 0.246921C6.16937 0.307535 6.08217 0.39469 6.0215 0.499642L4.33816 3.93031L0.570832 4.48098C0.447862 4.49884 0.332332 4.55071 0.237278 4.63075C0.142224 4.71078 0.0714302 4.81579 0.032885 4.93392C-0.00566018 5.05205 -0.0104225 5.1786 0.0191356 5.2993C0.0486936 5.41999 0.111395 5.53002 0.200165 5.61697L2.92883 8.29231L2.28483 12.0683C2.26447 12.1909 2.2787 12.3167 2.3259 12.4316C2.37311 12.5465 2.45143 12.646 2.55206 12.7188C2.65269 12.7917 2.77164 12.8351 2.89555 12.844C3.01946 12.853 3.14342 12.8272 3.2535 12.7696L6.62017 10.9896L9.98617 12.769C10.0961 12.8272 10.2201 12.8535 10.3442 12.8449C10.4683 12.8363 10.5876 12.7931 10.6884 12.7203C10.7893 12.6474 10.8677 12.5478 10.9149 12.4327C10.9621 12.3176 10.9762 12.1916 10.9555 12.069L10.3115 8.29231L13.0408 5.61631C13.1443 5.51456 13.2117 5.38184 13.2328 5.23831ZM9.72016 7.93831C9.68181 7.97604 9.65312 8.02247 9.63653 8.07364C9.61993 8.12482 9.61592 8.17925 9.62483 8.23231L10.2982 12.1796L6.7755 10.3176C6.72752 10.2927 6.67424 10.2797 6.62017 10.2797C6.56609 10.2797 6.51281 10.2927 6.46483 10.3176L2.94217 12.1803L3.6155 8.23231C3.62441 8.17925 3.6204 8.12482 3.6038 8.07364C3.58721 8.02247 3.55852 7.97604 3.52017 7.93831L0.666832 5.14031L4.60817 4.56431C4.66175 4.55633 4.71261 4.53548 4.75638 4.50355C4.80015 4.47162 4.83553 4.42956 4.8595 4.38097L6.62017 0.793642L8.38017 4.38164C8.40419 4.43031 8.43968 4.47243 8.48357 4.50436C8.52747 4.53629 8.57846 4.55709 8.63216 4.56497L12.5742 5.14031L9.72016 7.93831Z" fill="#A46E05"/>
</svg>
