<svg width="16" height="17" viewBox="0 0 16 17" fill="none" xmlns="http://www.w3.org/2000/svg">
<path d="M11.685 1.78C12.101 1.77961 12.5128 1.87224 12.8964 2.05248C13.28 2.23271 13.6276 2.49691 13.9189 2.8296C14.519 3.51208 14.8554 4.43162 14.8554 5.3896C14.8554 6.34758 14.519 7.26712 13.9189 7.9496L8 14.6632L2.08114 7.9496C1.48102 7.26712 1.14463 6.34758 1.14463 5.3896C1.14463 4.43162 1.48102 3.51208 2.08114 2.8296C2.37257 2.49715 2.72021 2.23309 3.10375 2.05283C3.4873 1.87257 3.89906 1.77973 4.315 1.77973C4.73093 1.77973 5.1427 1.87257 5.52624 2.05283C5.90979 2.23309 6.25743 2.49715 6.54885 2.8296L8 4.4936L9.44544 2.8424C9.7358 2.50575 10.0838 2.23815 10.4686 2.05561C10.8534 1.87307 11.2671 1.77933 11.685 1.78ZM11.685 0.500002C11.1169 0.499462 10.5544 0.625989 10.0305 0.872163C9.50665 1.11834 9.03191 1.4792 8.63416 1.9336L8 2.6504L7.36584 1.9336C6.9676 1.48002 6.49275 1.11978 5.96896 0.873884C5.44517 0.627984 4.88292 0.501342 4.315 0.501342C3.74707 0.501342 3.18483 0.627984 2.66104 0.873884C2.13725 1.11978 1.6624 1.48002 1.26416 1.9336C0.45396 2.85752 0 4.10087 0 5.396C0 6.69113 0.45396 7.93448 1.26416 8.8584L8 16.5L14.7358 8.8584C15.546 7.93448 16 6.69113 16 5.396C16 4.10087 15.546 2.85752 14.7358 1.9336C14.3377 1.47978 13.8629 1.11929 13.3391 0.873161C12.8153 0.627029 12.253 0.500177 11.685 0.500002Z" fill="black"/>
</svg>
