<svg width="38" height="37" viewBox="0 0 38 37" fill="none" xmlns="http://www.w3.org/2000/svg">
<path d="M37.9794 14.5916C38.0162 14.3426 38.0036 14.0889 37.9423 13.8448C37.8809 13.6008 37.772 13.3713 37.6218 13.1694C37.4717 12.9675 37.2831 12.7972 37.067 12.6682C36.851 12.5393 36.6116 12.4542 36.3625 12.4179L25.55 10.8375L20.7168 0.989256C20.5423 0.688228 20.2917 0.438367 19.9902 0.264736C19.6887 0.0911041 19.3469 -0.000193524 18.9989 3.07998e-07C18.651 0.00019414 18.3092 0.0918727 18.0079 0.26584C17.7066 0.439808 17.4563 0.689948 17.2822 0.991169L12.4509 10.8375L1.63834 12.4179C1.2854 12.4692 0.953821 12.6181 0.681008 12.8478C0.408195 13.0775 0.205011 13.3789 0.0943828 13.7179C-0.0162452 14.057 -0.0299135 14.4202 0.0549207 14.7666C0.139755 15.113 0.319714 15.4288 0.574492 15.6784L8.406 23.3568L6.55767 34.1942C6.49924 34.546 6.54006 34.9071 6.67554 35.2369C6.81103 35.5667 7.03581 35.8522 7.32462 36.0613C7.61344 36.2704 7.95484 36.3949 8.31048 36.4206C8.66612 36.4464 9.02189 36.3724 9.33782 36.2071L19.0004 31.0984L28.6612 36.2052C28.9767 36.3723 29.3327 36.4477 29.6889 36.423C30.045 36.3983 30.3872 36.2744 30.6766 36.0654C30.9661 35.8564 31.1913 35.5705 31.3268 35.2402C31.4622 34.9099 31.5026 34.5482 31.4432 34.1962L29.5949 23.3568L37.4283 15.6764C37.7252 15.3844 37.9186 15.0035 37.9794 14.5916ZM27.8977 22.3408C27.7876 22.4491 27.7053 22.5823 27.6577 22.7292C27.61 22.8761 27.5985 23.0323 27.6241 23.1846L29.5566 34.5138L19.4463 29.1697C19.3086 29.0981 19.1556 29.0607 19.0004 29.0607C18.8452 29.0607 18.6923 29.0981 18.5546 29.1697L8.44427 34.5157L10.3768 23.1846C10.4024 23.0323 10.3909 22.8761 10.3432 22.7292C10.2956 22.5823 10.2133 22.4491 10.1032 22.3408L1.91387 14.3103L13.2258 12.6571C13.3796 12.6342 13.5256 12.5744 13.6512 12.4827C13.7768 12.3911 13.8784 12.2704 13.9472 12.1309L19.0004 1.83497L24.0518 12.1328C24.1208 12.2725 24.2226 12.3934 24.3486 12.4851C24.4746 12.5767 24.6209 12.6364 24.7751 12.659L36.0889 14.3103L27.8977 22.3408Z" fill="#A46E05"/>
</svg>
