<svg width="14" height="8" viewBox="0 0 14 8" fill="none" xmlns="http://www.w3.org/2000/svg">
<path d="M5.03952 6.99528C4.4055 7.10699 3.7842 6.58442 3.85074 6.9612C3.91673 7.33853 4.48421 7.55329 5.11823 7.44131C5.75116 7.33041 6.21071 6.93334 6.14445 6.55656C6.07737 6.1795 5.67218 6.8833 5.03952 6.99528ZM1.47155 5.48273C1.12073 4.88631 1.29547 4.04267 1.01254 4.26447C0.730154 4.48627 0.786415 5.14895 1.13723 5.74564C1.48859 6.34179 2.00143 6.64555 2.28409 6.42402C2.56647 6.20222 1.82318 6.07861 1.47155 5.48273ZM1.21946 2.98345C1.5646 2.97913 1.01552 2.4084 1.03229 1.69622C1.04851 0.982948 1.62329 0.399241 1.27707 0.403569C0.932477 0.406815 0.639813 0.987275 0.622772 1.70081C0.606543 2.413 0.873782 2.98751 1.21946 2.98345ZM7.60047 4.74323C6.94265 4.82627 6.32324 4.25635 6.37571 4.64991C6.42873 5.03968 7.0054 5.28934 7.66295 5.20657C8.32022 5.12326 8.81034 4.73809 8.75679 4.34534C8.70377 3.95422 8.25747 4.65938 7.60047 4.74323ZM10.948 -0.828489C11.2929 -0.813342 11.6396 -1.37352 11.7218 -2.08083C11.8033 -2.78653 11.5871 -3.37132 11.2406 -3.38673C10.8942 -3.40161 11.3924 -2.80465 11.3107 -2.09841C11.2301 -1.39218 10.6004 -0.844718 10.948 -0.828489ZM7.09331 -4.75782C7.51661 -5.07753 8.13792 -5.01343 7.96724 -5.21332C7.79765 -5.41077 7.31564 -5.31285 6.89044 -4.99341C6.46686 -4.6737 6.26184 -4.25418 6.43251 -4.05537C6.60319 -3.85711 6.66919 -4.43892 7.09331 -4.75782ZM4.92645 -1.8704C5.62106 -2.13709 6.43522 -1.80927 6.28158 -2.14521C6.12795 -2.47817 5.4401 -2.53335 4.74279 -2.26693C4.04819 -2.00104 3.61028 -1.51336 3.76472 -1.17877C3.9189 -0.844177 4.23077 -1.60424 4.92645 -1.8704ZM5.08496 3.79328C5.79444 3.21039 6.12876 2.40137 5.8315 1.98942C5.53504 1.57558 5.44308 2.72108 4.73414 3.30425C4.02439 3.88795 2.96814 3.68942 3.26514 4.10353C3.56051 4.51521 4.37548 4.37645 5.08496 3.79328ZM9.71971 -3.7527C10.2685 -4.3905 10.4443 -5.17355 10.1116 -5.49814C9.77976 -5.82434 9.87551 -4.77621 9.32724 -4.13787C8.77789 -3.49871 7.79386 -3.51034 8.12683 -3.18468C8.45709 -2.85956 9.17063 -3.11381 9.71971 -3.7527ZM9.68861 1.99023C9.09976 2.50983 8.19526 2.37405 8.4579 2.71594C8.72081 3.05865 9.41082 2.91502 9.99939 2.3965C10.5885 1.87771 10.8522 1.17905 10.5899 0.836886C10.327 0.494452 10.2769 1.47171 9.68861 1.99023ZM3.69196 1.24748C4.34653 1.11711 4.83665 0.713274 4.78715 0.347579C4.73739 -0.0186572 4.28757 0.68271 3.63327 0.813895C2.97869 0.94508 2.36686 0.456584 2.41663 0.82201C2.46667 1.18798 3.03766 1.3784 3.69196 1.24748ZM12.6331 -1.30671C12.9718 -1.15415 13.4351 -1.53905 13.6677 -2.16631C13.9003 -2.7941 13.8143 -3.42622 13.4757 -3.57824C13.1365 -3.73079 13.4987 -2.97506 13.2666 -2.34753C13.0337 -1.71974 12.2947 -1.45872 12.6331 -1.30671ZM7.70893 0.305384C8.48738 0.0578899 9.05513 -0.458466 8.97507 -0.846341C8.89609 -1.23395 8.39434 -0.401934 7.61561 -0.152547C6.83608 0.095758 6.0771 -0.33269 6.15662 0.0551848C6.23533 0.441978 6.93075 0.55423 7.70893 0.305384Z" fill="black"/>
</svg>
