<svg width="21" height="18" viewBox="0 0 21 18" fill="none" xmlns="http://www.w3.org/2000/svg">
<path d="M20.92 2.5C20.15 2.85 19.32 3.08 18.46 3.19C19.34 2.66 20.02 1.82 20.34 0.81C19.51 1.31 18.59 1.66 17.62 1.86C16.83 1 15.72 0.5 14.46 0.5C12.11 0.5 10.19 2.42 10.19 4.79C10.19 5.13 10.23 5.46 10.3 5.77C6.74 5.59 3.57 3.88 1.46 1.29C1.09 1.92 0.88 2.66 0.88 3.44C0.88 4.93 1.63 6.25 2.79 7C2.08 7 1.42 6.8 0.84 6.5V6.53C0.84 8.61 2.32 10.35 4.28 10.74C3.65073 10.9122 2.9901 10.9362 2.35 10.81C2.62161 11.6625 3.15354 12.4084 3.87102 12.9429C4.5885 13.4775 5.45545 13.7737 6.35 13.79C4.83363 14.9904 2.954 15.6393 1.02 15.63C0.68 15.63 0.34 15.61 0 15.57C1.9 16.79 4.16 17.5 6.58 17.5C14.46 17.5 18.79 10.96 18.79 5.29C18.79 5.1 18.79 4.92 18.78 4.73C19.62 4.13 20.34 3.37 20.92 2.5Z" fill="white"/>
</svg>
