<svg width="44" height="33" viewBox="0 0 44 33" fill="none" xmlns="http://www.w3.org/2000/svg">
<path d="M23.4375 32.8125V23.4375H29.6875L21.875 14.0625L14.0625 23.4375H20.3125V32.8125H12.5V32.7344C12.2375 32.75 11.9875 32.8125 11.7188 32.8125C8.61074 32.8125 5.63003 31.5779 3.43234 29.3802C1.23465 27.1825 0 24.2018 0 21.0938C0 15.0813 4.54688 10.1813 10.3813 9.50938C10.8928 6.83529 12.3201 4.42303 14.4178 2.6875C16.5155 0.951967 19.1524 0.00165004 21.875 0C24.5979 0.00152395 27.2353 0.951728 29.3335 2.68722C31.4317 4.42271 32.8597 6.83503 33.3719 9.50938C39.2063 10.1813 43.7469 15.0813 43.7469 21.0938C43.7469 24.2018 42.5122 27.1825 40.3145 29.3802C38.1168 31.5779 35.1361 32.8125 32.0281 32.8125C31.7656 32.8125 31.5125 32.75 31.2469 32.7344V32.8125H23.4375Z" fill="black"/>
</svg>
