<svg width="15" height="14" viewBox="0 0 15 14" fill="none" xmlns="http://www.w3.org/2000/svg">
<path d="M13.8189 3.27007H11.9976L13.6703 1.59798C13.7175 1.5508 13.7549 1.49479 13.7805 1.43314C13.806 1.37149 13.8191 1.30541 13.8191 1.23868C13.8191 1.17196 13.806 1.10588 13.7805 1.04423C13.7549 0.982583 13.7175 0.926567 13.6703 0.879383C13.6231 0.832199 13.5671 0.79477 13.5055 0.769234C13.4438 0.743699 13.3777 0.730556 13.311 0.730556C13.2443 0.730556 13.1782 0.743699 13.1166 0.769234C13.0549 0.79477 12.9989 0.832199 12.9517 0.879383L11.2796 2.5521V0.730838C11.2796 0.596149 11.2261 0.466976 11.1309 0.371737C11.0356 0.276497 10.9065 0.222992 10.7718 0.222992C10.6371 0.222992 10.5079 0.276497 10.4127 0.371737C10.3174 0.466976 10.2639 0.596149 10.2639 0.730838V2.79841C9.49011 2.35168 8.5906 2.17252 7.70466 2.28865C6.81872 2.40479 5.99577 2.80975 5.36323 3.44083C2.81765 5.94134 0.903711 11.8888 0.717077 12.4837C0.629082 12.6725 0.601312 12.8839 0.637534 13.0891C0.673755 13.2943 0.772216 13.4834 0.91956 13.6308C1.0669 13.7781 1.256 13.8766 1.46121 13.9128C1.66641 13.949 1.87779 13.9213 2.06668 13.8333C2.66149 13.6466 8.61662 11.7301 11.1108 9.18584C11.7414 8.55311 12.1459 7.73018 12.2617 6.84438C12.3775 5.95859 12.1981 5.05932 11.7513 4.28576H13.8189C13.9536 4.28576 14.0827 4.23225 14.178 4.13701C14.2732 4.04178 14.3267 3.9126 14.3267 3.77791C14.3267 3.64322 14.2732 3.51405 14.178 3.41881C14.0827 3.32357 13.9536 3.27007 13.8189 3.27007ZM10.3833 8.47549C9.81577 9.05443 9.03432 9.60545 8.17098 10.1088L6.55984 8.49707C6.51266 8.44989 6.45664 8.41246 6.39499 8.38692C6.33334 8.36139 6.26727 8.34824 6.20054 8.34824C6.13381 8.34824 6.06774 8.36139 6.00609 8.38692C5.94444 8.41246 5.88842 8.44989 5.84124 8.49707C5.79406 8.54426 5.75663 8.60027 5.73109 8.66192C5.70556 8.72357 5.69241 8.78964 5.69241 8.85637C5.69241 8.9231 5.70556 8.98918 5.73109 9.05083C5.75663 9.11247 5.79406 9.16849 5.84124 9.21567L7.24353 10.618C4.64907 11.9631 1.76387 12.8665 1.72071 12.8798C1.68945 12.8899 1.65926 12.9031 1.63056 12.9191C1.6459 12.8906 1.65845 12.8606 1.66802 12.8296C1.68643 12.7706 3.44548 7.14303 5.73078 4.5346L7.87453 6.67835C7.96982 6.77364 8.09906 6.82718 8.23383 6.82718C8.36859 6.82718 8.49784 6.77364 8.59313 6.67835C8.68842 6.58306 8.74196 6.45381 8.74196 6.31905C8.74196 6.18428 8.68842 6.05504 8.59313 5.95975L6.46653 3.83378C7.08958 3.39047 7.85654 3.19764 8.61518 3.29354C9.37381 3.38944 10.0687 3.76708 10.5618 4.35149C11.0549 4.9359 11.3103 5.68437 11.2772 6.44832C11.2442 7.21228 10.9251 7.93587 10.3833 8.47549Z" fill="black"/>
</svg>
