<svg width="51" height="18" viewBox="0 0 51 18" fill="none" xmlns="http://www.w3.org/2000/svg">
<path fill-rule="evenodd" clip-rule="evenodd" d="M18.2009 9C18.2009 13.7719 14.3325 17.6403 9.56059 17.6403C4.78843 17.6403 0.919922 13.7719 0.919922 9C0.919922 4.22805 4.78843 0.359652 9.56059 0.359652C14.3325 0.359652 18.2009 4.22805 18.2009 9Z" fill="#ED342B"/>
<path fill-rule="evenodd" clip-rule="evenodd" d="M9.5606 12.7011C7.62792 8.32023 6.21083 4.22768 6.21083 4.22768H3.24805C3.24805 4.22768 5.05134 9.48049 8.40099 16.0494H10.7202C14.0699 9.48049 15.873 4.22768 15.873 4.22768H12.9103C12.9103 4.22768 11.4933 8.32023 9.5606 12.7011Z" fill="#FEFEFE"/>
<path fill-rule="evenodd" clip-rule="evenodd" d="M46.772 8.54936C45.0972 8.54936 44.9685 10.353 44.9685 10.353H48.5752C48.5752 10.353 48.4466 8.54936 46.772 8.54936ZM50.7654 12.1563H44.9685C44.9685 12.1563 45.0972 14.0888 47.6739 14.0888C48.9619 14.0888 50.2501 13.702 50.2501 13.702L50.5079 15.7631C50.5079 15.7631 49.2197 16.2787 47.4161 16.2787C44.8397 16.2787 42.5209 14.9903 42.5209 11.3834C42.5209 8.54936 44.3245 6.74585 46.9009 6.74585C50.7654 6.74585 51.0229 10.6105 50.7654 12.1563ZM31.0539 9.11245L31.4528 6.98547C31.4528 6.98547 28.3728 6.05088 25.8694 7.78286V16.2908H28.528V9.37807C29.5915 8.58079 31.0539 9.11245 31.0539 9.11245ZM19.9719 8.54936C18.2974 8.54936 18.1687 10.353 18.1687 10.353H21.7755C21.7755 10.353 21.6468 8.54936 19.9719 8.54936ZM23.9653 12.1563H18.1687C18.1687 12.1563 18.2974 14.0888 20.8738 14.0888C22.1617 14.0888 23.45 13.702 23.45 13.702L23.7078 15.7631C23.7078 15.7631 22.4195 16.2787 20.616 16.2787C18.0396 16.2787 15.7207 14.9903 15.7207 11.3834C15.7207 8.54936 17.5243 6.74585 20.1007 6.74585C23.9653 6.74585 24.2228 10.6105 23.9653 12.1563ZM37.5422 13.0391C36.1922 9.79888 35.5174 6.7474 35.5174 6.7474L32.818 6.74773C32.818 6.74773 34.1679 11.959 36.4628 16.2771H38.6215C40.9166 11.959 42.2665 6.74849 42.2665 6.74849H39.5669C39.5669 6.74849 38.8922 9.79888 37.5422 13.0391Z" fill="#03435F"/>
</svg>
